<svg xmlns="http://www.w3.org/2000/svg" fill="none" viewBox="0 0 24 24" height="24" width="24">
<path fill="white" d="M2.59233 0C1.16063 0 0 1.16063 0 2.59233V21.4077C0 22.8394 1.16063 24 2.59233 24H21.4077C22.8394 24 24 22.8394 24 21.4077V2.59233C24 1.16063 22.8394 0 21.4077 0H2.59233ZM13.7008 2.74923L13.8069 2.64314L13.3382 2.17422L13.5014 2.81687C13.6758 3.5037 13.6078 4.05991 13.3975 4.53865C13.185 5.02239 12.8216 5.43938 12.3846 5.83516C12.0913 6.10071 11.7755 6.34798 11.4555 6.59845L11.4555 6.59847L11.4554 6.59855L11.4554 6.59858L11.4553 6.59864L11.4553 6.59866C11.2942 6.72475 11.1321 6.85166 10.9713 6.98211C10.4992 7.36515 10.0475 7.77252 9.73097 8.24786C9.50447 8.58793 9.41569 8.94139 9.44429 9.30378C9.47255 9.66197 9.61442 10.0171 9.82885 10.3677C10.2551 11.0647 10.9954 11.7862 11.8253 12.5349L12.1141 12.3258C11.9594 11.9761 11.7219 11.6381 11.4943 11.3142L11.4943 11.3142L11.494 11.3137C11.4701 11.2797 11.4463 11.2458 11.4227 11.2121C11.1688 10.849 10.9365 10.4999 10.8085 10.1342C10.6832 9.7761 10.6591 9.40511 10.8244 8.99293C10.9924 8.57409 11.3627 8.09592 12.0615 7.54401C13.8635 6.12143 14.3408 4.91581 14.3279 4.03199C14.3215 3.59396 14.1944 3.2498 14.068 3.01456C14.0049 2.89703 13.9417 2.80637 13.8935 2.74417C13.8694 2.71304 13.8489 2.68893 13.8339 2.67206C13.8264 2.66361 13.8202 2.65697 13.8157 2.65214L13.8135 2.6499C13.8122 2.64849 13.811 2.64727 13.81 2.64627L13.8082 2.64436L13.8075 2.64366L13.8072 2.64338C13.8072 2.64338 13.807 2.64314 13.7008 2.74923ZM11.7485 12.219C11.6207 12.1021 11.496 11.9862 11.3753 11.8715C11.427 11.9206 11.4795 11.97 11.5326 12.0196C11.6035 12.0857 11.6755 12.1522 11.7485 12.219ZM11.8417 8.97072C11.662 9.65222 11.8573 10.4262 12.6005 11.2826C12.7895 11.5002 12.8637 11.7022 12.8789 11.8792C12.8943 12.0584 12.8504 12.2269 12.7796 12.3764C12.7086 12.5264 12.613 12.652 12.5336 12.7411C12.4942 12.7852 12.4595 12.8194 12.4353 12.8422C12.4232 12.8536 12.4137 12.862 12.4076 12.8674C12.4046 12.87 12.4024 12.8719 12.4011 12.873L12.4 12.8739L12.4001 12.874L12.4007 12.8747L12.5994 13.1767L12.5158 13.0147C12.5994 13.1767 12.5995 13.1766 12.5995 13.1766L12.5997 13.1765L12.6002 13.1762L12.6012 13.1757L12.6018 13.1754L12.6073 13.1725C12.612 13.17 12.6186 13.1665 12.627 13.1619C12.6439 13.1527 12.6679 13.1393 12.6978 13.1219C12.7576 13.0871 12.8413 13.0362 12.9382 12.9707C13.1312 12.8403 13.3814 12.6491 13.6014 12.4095C13.8202 12.171 14.0193 11.8734 14.0913 11.5297C14.1649 11.1781 14.1013 10.7968 13.8266 10.4101L13.8266 10.41C13.7851 10.3518 13.7448 10.2956 13.7056 10.2413C13.5205 9.98394 13.3633 9.76553 13.258 9.55095C13.1352 9.3008 13.0951 9.07877 13.1703 8.83656C13.2487 8.58429 13.4603 8.28255 13.9074 7.89878C14.3525 7.51668 15.0149 7.06674 15.968 6.514L15.8324 6.17948L15.8686 6.32438C15.8323 6.17948 15.8322 6.17953 15.8322 6.17953L15.8319 6.17961L15.8308 6.17987L15.8271 6.18081C15.8239 6.18162 15.8194 6.1828 15.8134 6.18435C15.8015 6.18745 15.7842 6.19204 15.7618 6.19812C15.7172 6.21028 15.6526 6.22842 15.5717 6.25263C15.41 6.30103 15.1827 6.37378 14.9192 6.47154C14.394 6.66642 13.717 6.9635 13.1278 7.3698C12.5424 7.77354 12.0179 8.30285 11.8417 8.97072ZM12.5343 13.0048C12.5222 13.0114 12.5158 13.0147 12.5158 13.0147C12.5158 13.0147 12.5224 13.012 12.5343 13.0048ZM9.30733 14.5683L9.14178 14.2494C8.76319 14.375 8.48521 14.5089 8.30948 14.6527C8.13372 14.7965 8.01835 14.9913 8.0969 15.2102C8.16358 15.396 8.35204 15.5275 8.55846 15.6234C8.77588 15.7243 9.0621 15.8079 9.39615 15.8722C10.73 16.1291 12.9544 16.1032 15.0579 15.4881L15.6008 15.3294L15.0673 15.1413C14.8674 15.0708 14.7023 14.9704 14.5868 14.8869C14.5293 14.8454 14.4849 14.8086 14.4554 14.7827C14.4406 14.7698 14.4297 14.7596 14.4227 14.7531C14.4192 14.7498 14.4168 14.7474 14.4153 14.746L14.4147 14.7454L14.414 14.7446L14.4139 14.7446L14.3457 14.6754L14.25 14.6939C12.2393 15.0811 11.0841 15.0683 9.61447 14.9167C9.33548 14.8878 9.20899 14.8347 9.15919 14.797C9.14619 14.7871 9.14123 14.7805 9.13964 14.7778C9.13966 14.7761 9.14001 14.7725 9.14183 14.7662C9.15126 14.7335 9.18324 14.6867 9.23029 14.6383C9.25145 14.6165 9.27174 14.5984 9.28664 14.5859C9.29402 14.5796 9.29988 14.5749 9.30362 14.572C9.30549 14.5705 9.30681 14.5695 9.3075 14.569L9.30775 14.5688L9.30763 14.5687L9.30733 14.5683ZM9.61898 16.3437L9.71027 16.5004L9.71063 16.501C9.71074 16.5012 9.71074 16.5012 9.71074 16.5012L9.70984 16.5017L9.70819 16.5027C9.70531 16.5045 9.70065 16.5075 9.69475 16.5115C9.68272 16.5197 9.66684 16.5312 9.65095 16.5449C9.64031 16.554 9.63204 16.5621 9.62564 16.5689L9.62638 16.5693C9.69241 16.6062 9.83608 16.6522 10.117 16.6845C11.4884 16.841 12.1808 16.8192 13.6962 16.5324L13.7664 16.5191L13.8269 16.557L13.8275 16.5574L13.8291 16.5583L13.8304 16.5592C13.8331 16.5609 13.8373 16.5634 13.8429 16.5668C13.8542 16.5736 13.8712 16.5838 13.8936 16.5968C13.9382 16.6228 14.004 16.66 14.0872 16.704C14.2536 16.7921 14.4885 16.9068 14.7618 17.013L15.1776 17.1747L14.7675 17.3505C13.0084 18.1044 11.023 18.083 9.81221 17.7748C9.50838 17.6975 9.24587 17.6003 9.04475 17.4879C8.85124 17.3798 8.68225 17.2397 8.61891 17.0607C8.58506 16.9651 8.5836 16.8634 8.62 16.7644C8.65517 16.6687 8.72132 16.5868 8.80409 16.5172C8.89824 16.4379 9.04049 16.4246 9.21072 16.4088C9.33458 16.3973 9.47325 16.3844 9.61898 16.3437ZM17.1658 17.9054C17.1658 17.9054 17.1658 17.9054 17.1666 17.9044L17.3568 17.5987C17.59 17.7039 17.7974 17.8619 17.8024 18.1C17.8049 18.2165 17.7558 18.3191 17.6884 18.4033C17.6213 18.487 17.5285 18.5628 17.4203 18.6319C16.9939 18.9043 16.1946 19.1563 15.146 19.3431C13.0357 19.7191 9.82287 19.8469 6.30104 19.2758C5.97235 19.2225 5.7262 19.1501 5.55821 19.056C5.39033 18.962 5.26199 18.8214 5.26853 18.6295C5.27438 18.458 5.38917 18.316 5.50875 18.2104C5.63515 18.0988 5.80452 17.9949 5.99149 17.9026C6.36645 17.7174 6.84359 17.5635 7.2739 17.4869C7.48919 17.4486 7.69866 17.4285 7.88149 17.4355C8.05816 17.4423 8.23708 17.4752 8.36776 17.5673L8.90292 17.9443L8.25072 17.8982L8.25049 17.8982L8.25024 17.8982C8.2495 17.8981 8.24792 17.898 8.24552 17.8979C8.24072 17.8978 8.23261 17.8975 8.22132 17.8975C8.19874 17.8973 8.16339 17.8979 8.11612 17.9009C8.02159 17.9069 7.87932 17.9227 7.69606 17.9624L7.69588 17.9625L7.6957 17.9625C7.52032 18.0002 7.15206 18.11 6.91069 18.2378C6.85139 18.2692 6.80542 18.2988 6.77361 18.325L6.77138 18.3269C6.78228 18.3328 6.79591 18.3396 6.81273 18.3469C7.21949 18.524 7.91274 18.6531 8.77462 18.7331C9.63035 18.8126 10.6328 18.8422 11.6449 18.8294C13.6766 18.8037 15.7175 18.6079 16.6824 18.3157C16.9318 18.24 17.0706 18.164 17.1445 18.1029C17.2144 18.045 17.2172 18.0091 17.2175 18.0008C17.2182 17.9853 17.2117 17.9638 17.1937 17.9381C17.1855 17.9263 17.177 17.9168 17.1708 17.9104C17.1678 17.9074 17.1656 17.9053 17.1646 17.9044L17.1647 17.9045L17.1652 17.9049L17.1656 17.9052L17.1658 17.9054ZM14.5901 13.2404C15.2265 13.1513 15.6763 13.071 15.6763 13.071C15.6763 13.071 15.4382 13.1135 15.0634 13.171C14.9231 13.1925 14.7635 13.2161 14.5901 13.2404ZM9.95374 12.2498L9.94428 12.3902C9.95373 12.2498 9.95361 12.2497 9.95361 12.2497L9.95345 12.2497L9.95304 12.2497L9.95275 12.2497L9.95188 12.2496L9.9482 12.2494C9.94516 12.2492 9.94092 12.249 9.93553 12.2488C9.92474 12.2483 9.90931 12.2477 9.88947 12.2472C9.84979 12.2463 9.79246 12.2459 9.71936 12.2479C9.57318 12.2517 9.36373 12.2648 9.10607 12.3014C8.59088 12.3748 7.88165 12.5426 7.10012 12.9204C6.97959 12.9787 6.87902 13.0412 6.80683 13.111C6.73532 13.1801 6.67155 13.2767 6.6781 13.3973C6.68459 13.517 6.75741 13.6041 6.82917 13.6616C6.90213 13.7201 6.99719 13.7674 7.10144 13.8071C7.51398 13.9644 8.25347 14.0697 9.12612 14.1205C10.8807 14.2226 13.2757 14.1091 14.9205 13.6765L14.9509 13.6685L14.9769 13.6508C15.135 13.5428 15.3269 13.4398 15.4824 13.3627C15.5595 13.3244 15.6264 13.2932 15.6739 13.2716C15.6976 13.2608 15.7164 13.2524 15.7291 13.2468C15.734 13.2446 15.738 13.2429 15.741 13.2416L15.7436 13.2405L15.7471 13.2389L15.748 13.2385L15.748 13.2384L15.656 12.9309L16.062 12.7667L16.064 12.7659C16.0664 12.765 16.0706 12.7634 16.0768 12.7613C16.0891 12.757 16.1091 12.7502 16.1373 12.7418C16.1936 12.7248 16.2827 12.7008 16.4079 12.6747C16.8527 12.582 17.3883 12.8878 17.4704 13.3691C17.5503 13.8376 17.2149 14.6181 15.5791 15.4681L15.5169 15.5004L15.4952 15.5586C15.4935 15.5608 15.4912 15.5637 15.4881 15.5671C15.4842 15.5715 15.4804 15.5753 15.4777 15.578C15.4764 15.5793 15.4754 15.5802 15.475 15.5806L15.4752 15.5804L15.4754 15.5803L15.4755 15.5802L15.4756 15.5803L15.6433 15.8924C16.7609 15.5986 17.517 15.1878 17.9812 14.7336C18.4476 14.2771 18.6228 13.7712 18.5538 13.3106C18.4151 12.386 17.3438 11.8117 16.2151 12.2085L16.2148 12.2086L16.2145 12.2087C16.0904 12.2528 15.9983 12.3246 15.9384 12.383C15.9081 12.4125 15.8849 12.4397 15.8688 12.4602C15.8607 12.4705 15.8543 12.4793 15.8496 12.4859C15.8473 12.4893 15.8453 12.4921 15.8438 12.4944L15.8419 12.4973L15.8411 12.4985L15.8408 12.499L15.8406 12.4993C15.8406 12.4993 15.8405 12.4993 15.9942 12.5974L15.8405 12.4994L15.5834 12.9021C15.5451 12.9088 15.4894 12.9182 15.4188 12.9299C15.2748 12.9537 15.069 12.9866 14.822 13.0229C14.3277 13.0957 13.6705 13.1822 13.0157 13.2374C11.4032 13.3725 9.68546 13.3973 8.83611 13.2836C8.59314 13.2512 8.43997 13.2136 8.35144 13.1778C8.35585 13.1747 8.36055 13.1714 8.36553 13.1681C8.4371 13.1201 8.54315 13.0674 8.67401 13.0132C8.93386 12.9055 9.25994 12.8045 9.52482 12.7297C9.65648 12.6925 9.77152 12.6623 9.85357 12.6413C9.89457 12.6308 9.92728 12.6227 9.94965 12.6172C9.96083 12.6145 9.96942 12.6124 9.97517 12.611L9.98162 12.6094L9.9836 12.6089L9.95374 12.2498ZM15.9942 12.5974C15.9942 12.5974 16.1103 12.5504 16.3707 12.4962C16.3538 12.4997 16.3374 12.5033 16.3217 12.5068L16.3205 12.5071L16.32 12.5071C16.0952 12.5566 15.9942 12.5974 15.9942 12.5974ZM18.165 14.222C17.8147 14.7821 17.0214 15.3415 15.5969 15.716C15.6297 15.7074 15.6622 15.6988 15.6943 15.6899C15.7192 15.6831 15.7439 15.6762 15.7684 15.6693C15.927 15.6243 16.0772 15.577 16.2194 15.5276C17.2586 15.1667 17.8695 14.6946 18.165 14.222ZM17.5944 13.1423C17.4079 12.682 16.8793 12.4169 16.4199 12.4873C16.4825 12.4778 16.5463 12.4745 16.6104 12.477C17.0169 12.4929 17.4332 12.7448 17.5944 13.1423ZM7.95243 20.3708C8.11339 20.4365 8.41119 20.5293 8.93348 20.6124C9.09904 20.6387 9.28717 20.664 9.50064 20.6872C8.61377 20.5908 8.16442 20.4572 7.95243 20.3708ZM15.3106 20.6078C16.693 20.4177 17.8258 20.08 18.2332 19.5455C18.2494 19.5243 18.2644 19.5028 18.2783 19.4809C17.9152 20.0529 16.7479 20.4102 15.3106 20.6078ZM8.19674 20.644C8.57317 20.7486 9.20669 20.8669 10.2533 20.934C11.8426 21.0357 13.8593 21.0079 15.498 20.7652C16.3158 20.6441 17.0515 20.4679 17.5948 20.2209C18.126 19.9794 18.5383 19.6393 18.5752 19.1584L18.2262 19.0788C18.2238 19.0778 18.2239 19.0777 18.2239 19.0777L18.2241 19.0772L18.2245 19.0761L18.2253 19.0742C18.2258 19.073 18.2263 19.0719 18.2267 19.071C18.2272 19.0699 18.2277 19.0689 18.228 19.0682L18.2285 19.0673L18.2288 19.0666C18.2288 19.0666 18.2282 19.0678 18.2268 19.0699C18.2227 19.0761 18.2121 19.0911 18.1904 19.1135C18.1471 19.1584 18.0598 19.233 17.8952 19.3251C17.5646 19.5099 16.9327 19.7593 15.7479 19.9824C13.0727 20.4859 9.76724 20.4268 7.81359 20.1047L7.1482 19.995L7.66772 20.425L7.76348 20.3093C7.66776 20.425 7.66805 20.4253 7.66805 20.4253L7.66838 20.4255L7.66861 20.4257L7.66907 20.4261L7.67057 20.4273C7.67162 20.4282 7.67278 20.4291 7.67403 20.43C7.67655 20.432 7.67948 20.4342 7.68288 20.4366C7.68966 20.4414 7.69829 20.4473 7.70902 20.454C7.73048 20.4673 7.76047 20.4841 7.80127 20.5035C7.88274 20.5422 8.00827 20.5916 8.19674 20.644Z" clip-rule="evenodd" fill-rule="evenodd"></path>
</svg>
