<svg xmlns="http://www.w3.org/2000/svg" fill="none" viewBox="0 0 24 24" height="24" width="24">
<path fill="white" d="M2.59233 0C1.16063 0 0 1.16063 0 2.59233V21.4077C0 22.8394 1.16063 24 2.59233 24H21.4077C22.8394 24 24 22.8394 24 21.4077V2.59233C24 1.16063 22.8394 0 21.4077 0H2.59233ZM13.9477 3.33839L14.246 4.17082C14.3253 4.19352 14.4041 4.21739 14.4824 4.24241L15.1928 3.71604C15.2653 3.66227 15.3608 3.65052 15.4443 3.68508C15.5277 3.71965 15.5869 3.79546 15.6002 3.88481L15.7304 4.75993C15.8034 4.79759 15.8757 4.83632 15.9473 4.87609L16.7475 4.49808C16.8292 4.4595 16.9251 4.4666 17.0002 4.51678C17.0753 4.56696 17.1186 4.65286 17.1142 4.74308L17.0711 5.62846C17.1347 5.67919 17.1976 5.73086 17.2597 5.78344L18.1198 5.5684C18.2075 5.5465 18.3002 5.57217 18.364 5.63604C18.4279 5.69991 18.4536 5.79261 18.4317 5.88024L18.2166 6.74037C18.2692 6.80245 18.3209 6.86533 18.3716 6.92898L19.257 6.88589C19.3472 6.8815 19.4331 6.92477 19.4833 6.99987C19.5335 7.07497 19.5406 7.1709 19.502 7.25257L19.124 8.05274C19.1638 8.1244 19.2025 8.19673 19.2402 8.2697L20.1153 8.39991C20.2046 8.41321 20.2804 8.4724 20.315 8.55585C20.3496 8.6393 20.3378 8.73477 20.284 8.80734L19.7577 9.5177C19.7827 9.59597 19.8066 9.67476 19.8293 9.75404L20.6616 10.0523C20.7467 10.0828 20.8095 10.1556 20.8271 10.2442C20.8447 10.3328 20.8146 10.4241 20.7477 10.4848L20.0916 11.08C20.1007 11.1608 20.1086 11.242 20.1153 11.3235L20.8752 11.7795C20.9527 11.826 21 11.9097 21 12C21 12.0903 20.9527 12.174 20.8752 12.2205L20.1153 12.6765C20.1086 12.758 20.1007 12.8392 20.0916 12.92L20.7476 13.5152C20.8145 13.5759 20.8447 13.6672 20.827 13.7558C20.8094 13.8444 20.7466 13.9172 20.6616 13.9477L19.8293 14.2459C19.8066 14.3252 19.7827 14.4041 19.7577 14.4824L20.284 15.1927C20.3377 15.2652 20.3495 15.3607 20.3149 15.4442C20.2804 15.5276 20.2046 15.5868 20.1152 15.6001L19.2402 15.7303C19.2025 15.8033 19.1638 15.8756 19.124 15.9472L19.502 16.7474C19.5406 16.8291 19.5335 16.925 19.4833 17.0001C19.4332 17.0752 19.3472 17.1185 19.257 17.1141L18.3716 17.071C18.3209 17.1347 18.2692 17.1976 18.2166 17.2597L18.4317 18.1198C18.4536 18.2074 18.4279 18.3001 18.364 18.364C18.3001 18.4278 18.2074 18.4535 18.1198 18.4316L17.2597 18.2166C17.1976 18.2692 17.1347 18.3208 17.071 18.3716L17.1141 19.2569C17.1185 19.3471 17.0752 19.433 17.0001 19.4832C16.925 19.5334 16.8291 19.5405 16.7474 19.5019L15.9473 19.1239C15.8756 19.1637 15.8033 19.2025 15.7303 19.2401L15.6001 20.1152C15.5868 20.2045 15.5276 20.2803 15.4442 20.3149C15.3607 20.3495 15.2653 20.3377 15.1927 20.284L14.4823 19.7576C14.4041 19.7826 14.3253 19.8065 14.246 19.8292L13.9478 20.6616C13.9173 20.7466 13.8444 20.8094 13.7559 20.8271C13.6673 20.8447 13.5759 20.8145 13.5152 20.7476L12.92 20.0915C12.8392 20.1006 12.7581 20.1085 12.6766 20.1152L12.2206 20.8752C12.1741 20.9526 12.0904 21 12.0001 21C11.9098 21 11.8261 20.9526 11.7796 20.8752L11.3236 20.1152C11.2421 20.1085 11.161 20.1006 11.0802 20.0915L10.4849 20.7476C10.4242 20.8145 10.3329 20.8447 10.2443 20.8271C10.1557 20.8094 10.0828 20.7466 10.0524 20.6616L9.75409 19.8292C9.67482 19.8065 9.59604 19.7826 9.51778 19.7576L8.80735 20.284C8.73477 20.3377 8.63931 20.3495 8.55586 20.3149C8.47241 20.2803 8.41321 20.2045 8.39992 20.1152L8.26969 19.24C8.19677 19.2024 8.1245 19.1636 8.05289 19.1239L7.25263 19.5019C7.17096 19.5405 7.07503 19.5334 6.99993 19.4832C6.92483 19.4331 6.88156 19.3471 6.88595 19.2569L6.92905 18.3715C6.86542 18.3207 6.80256 18.2691 6.74051 18.2165L5.88028 18.4316C5.79265 18.4535 5.69995 18.4278 5.63608 18.364C5.57222 18.3001 5.54654 18.2074 5.56845 18.1198L5.78351 17.2595C5.73096 17.1975 5.67932 17.1346 5.62862 17.071L4.74313 17.1141C4.65291 17.1185 4.56701 17.0752 4.51682 17.0001C4.46664 16.925 4.45954 16.8291 4.49813 16.7474L4.87619 15.9471C4.83642 15.8755 4.7977 15.8032 4.76006 15.7303L3.88486 15.6001C3.79552 15.5868 3.7197 15.5276 3.68513 15.4441C3.65057 15.3607 3.66232 15.2652 3.71609 15.1927L4.24251 14.4822C4.2175 14.404 4.19365 14.3252 4.17096 14.246L3.3385 13.9477C3.25346 13.9172 3.19065 13.8444 3.17303 13.7558C3.15541 13.6672 3.18556 13.5759 3.25246 13.5152L3.90865 12.9199C3.89957 12.8391 3.89167 12.758 3.88497 12.6766L3.12484 12.2205C3.04739 12.174 3 12.0903 3 12C3 11.9097 3.04739 11.826 3.12484 11.7795L3.88498 11.3234C3.89168 11.242 3.89957 11.1609 3.90865 11.0801L3.25243 10.4848C3.18553 10.4241 3.15538 10.3328 3.173 10.2442C3.19063 10.1556 3.25344 10.0828 3.33847 10.0523L4.17097 9.75398C4.19366 9.67474 4.21752 9.596 4.24253 9.51777L3.71614 8.80734C3.66237 8.73477 3.65062 8.6393 3.68518 8.55585C3.71975 8.4724 3.79556 8.41321 3.8849 8.39991L4.76006 8.26969C4.7977 8.19678 4.83641 8.12451 4.87617 8.05291L4.49808 7.25257C4.4595 7.1709 4.4666 7.07497 4.51678 6.99987C4.56696 6.92477 4.65287 6.8815 4.74309 6.88589L5.62863 6.92899C5.67934 6.86536 5.73097 6.80251 5.78353 6.74046L5.56847 5.88023C5.54656 5.79261 5.57224 5.69991 5.63611 5.63604C5.69998 5.57217 5.79267 5.5465 5.8803 5.5684L6.74052 5.78346C6.80259 5.73089 6.86545 5.67924 6.92909 5.62852L6.886 4.74309C6.88161 4.65287 6.92487 4.56696 6.99998 4.51678C7.07508 4.4666 7.171 4.4595 7.25267 4.49808L8.05291 4.87612C8.12454 4.83634 8.19683 4.79762 8.26977 4.75996L8.39999 3.88481C8.41329 3.79547 8.47248 3.71965 8.55593 3.68509C8.63938 3.65052 8.73485 3.66227 8.80742 3.71605L9.51784 4.24243C9.59608 4.21741 9.67482 4.19355 9.75407 4.17086L10.0524 3.3384C10.0828 3.25337 10.1557 3.19056 10.2443 3.17294C10.3329 3.15531 10.4242 3.18546 10.4849 3.25236L11.0802 3.90854C11.1609 3.89946 11.2421 3.89156 11.3235 3.88486L11.7795 3.12484C11.826 3.04739 11.9097 3 12 3C12.0904 3 12.1741 3.04739 12.2205 3.12484L12.6765 3.88485C12.758 3.89155 12.8392 3.89945 12.92 3.90853L13.5152 3.25236C13.5759 3.18546 13.6672 3.15531 13.7558 3.17293C13.8444 3.19055 13.9173 3.25336 13.9477 3.33839ZM7.13244 7.54286C8.07901 6.50966 9.35021 5.77877 10.7845 5.51172L11.6364 6.36366C11.8373 6.5645 12.1629 6.5645 12.3637 6.36366L13.2157 5.51171C15.1935 5.87993 16.8612 7.13015 17.7952 8.8388L17.2482 9.91242C17.1192 10.1655 17.2199 10.4752 17.4729 10.6041L18.546 11.1509C18.5817 11.4289 18.6001 11.7123 18.6001 12C18.6001 12.1731 18.5935 12.3446 18.5804 12.5143H17.9144C17.867 12.5143 17.8287 12.5527 17.8287 12.6V12.9429C17.8287 13.2695 17.7371 13.4938 17.607 13.6381C17.4767 13.7826 17.3009 13.8547 17.117 13.8644C16.7428 13.8841 16.3597 13.647 16.2841 13.2689C16.1952 12.8241 15.9737 12.4265 15.7537 12.1406C15.6436 11.9975 15.5325 11.8804 15.4361 11.7982C15.4092 11.7752 15.3829 11.7546 15.3578 11.7367C15.9286 11.4006 16.2851 10.9901 16.4642 10.554C16.6581 10.0818 16.6406 9.58782 16.4732 9.14133C16.1397 8.25201 15.2086 7.54286 14.1429 7.54286H7.13244ZM6.75194 9.91242L6.59275 9.6H7.71437V13.8857H5.67344C5.49561 13.2882 5.40013 12.6553 5.40013 12C5.40013 11.7123 5.41854 11.4288 5.45425 11.1508L6.52718 10.6041C6.78026 10.4752 6.88088 10.1655 6.75194 9.91242ZM8.9813 16.7737L9.16984 17.9641C10.0276 18.3718 10.9872 18.6 12.0001 18.6C13.013 18.6 13.9726 18.3719 14.8302 17.9641L15.0188 16.7737C15.0632 16.4931 15.3267 16.3017 15.6072 16.3462L16.7959 16.5344C16.9729 16.3473 17.1391 16.1497 17.2934 15.9429H14.6572C14.4482 15.9429 14.2775 15.8873 14.1383 15.7867C14.0002 15.6868 13.8985 15.5467 13.8196 15.386C13.6795 15.1008 13.603 14.7323 13.5276 14.3694L13.5019 14.2462C13.4158 13.837 13.3217 13.445 13.1383 13.1547C13.0477 13.0113 12.9367 12.895 12.7958 12.8143C12.6552 12.7337 12.4802 12.6857 12.2572 12.6857H10.6287V13.8857H12.0858C12.1331 13.8857 12.1715 13.9241 12.1715 13.9714V15.8571C12.1715 15.9045 12.1331 15.9429 12.0858 15.9429H6.7068C6.86114 16.1497 7.02733 16.3472 7.20434 16.5344L8.3929 16.3461C8.67343 16.3017 8.93687 16.4931 8.9813 16.7737ZM10.6287 10.8V9.6H12.7715C13.4344 9.6 13.7144 9.92572 13.7144 10.2C13.7144 10.4743 13.4344 10.8 12.7715 10.8H10.6287Z" clip-rule="evenodd" fill-rule="evenodd"></path>
</svg>
