<svg viewBox="0 0 24 24" fill="currentColor" xmlns="http://www.w3.org/2000/svg">
<path fill-rule="evenodd" clip-rule="evenodd" d="M0 4.5C0 4.22386 0.282768 4 0.631579 4H23.3684C23.7172 4 24 4.22386 24 4.5C24 4.77614 23.7172 5 23.3684 5H0.631579C0.282768 5 0 4.77614 0 4.5Z" />
<path fill-rule="evenodd" clip-rule="evenodd" d="M0 9.5C0 9.22386 0.282768 9 0.631579 9H23.3684C23.7172 9 24 9.22386 24 9.5C24 9.77614 23.7172 10 23.3684 10H0.631579C0.282768 10 0 9.77614 0 9.5Z" />
<path fill-rule="evenodd" clip-rule="evenodd" d="M0 14.5C0 14.2239 0.282768 14 0.631579 14H23.3684C23.7172 14 24 14.2239 24 14.5C24 14.7761 23.7172 15 23.3684 15H0.631579C0.282768 15 0 14.7761 0 14.5Z" />
<path fill-rule="evenodd" clip-rule="evenodd" d="M0 19.5C0 19.2239 0.282768 19 0.631579 19H23.3684C23.7172 19 24 19.2239 24 19.5C24 19.7761 23.7172 20 23.3684 20H0.631579C0.282768 20 0 19.7761 0 19.5Z" />
</svg>
