<svg viewBox="0 0 24 24" fill="currentColor" xmlns="http://www.w3.org/2000/svg">
<path fill-rule="evenodd" clip-rule="evenodd" d="M3 4.5C3 4.22386 3.21208 4 3.47368 4H20.5263C20.7879 4 21 4.22386 21 4.5C21 4.77614 20.7879 5 20.5263 5H3.47368C3.21208 5 3 4.77614 3 4.5Z" />
<path fill-rule="evenodd" clip-rule="evenodd" d="M3 9.5C3 9.22386 3.21208 9 3.47368 9H20.5263C20.7879 9 21 9.22386 21 9.5C21 9.77614 20.7879 10 20.5263 10H3.47368C3.21208 10 3 9.77614 3 9.5Z" />
<path fill-rule="evenodd" clip-rule="evenodd" d="M3 14.5C3 14.2239 3.21208 14 3.47368 14H20.5263C20.7879 14 21 14.2239 21 14.5C21 14.7761 20.7879 15 20.5263 15H3.47368C3.21208 15 3 14.7761 3 14.5Z" />
<path fill-rule="evenodd" clip-rule="evenodd" d="M3 19.5C3 19.2239 3.21208 19 3.47368 19H20.5263C20.7879 19 21 19.2239 21 19.5C21 19.7761 20.7879 20 20.5263 20H3.47368C3.21208 20 3 19.7761 3 19.5Z" />
</svg>
