<svg viewBox="0 0 512 512" fill="currentColor" xmlns="http://www.w3.org/2000/svg">
  <path
     d="m 255.99846,26.033898 c -6.48004,0 -12.88008,1.437007 -18.96011,4.208376 L 12.636998,134.21996 c -7.6000461,3.59252 -12.64007638,12.83041 -12.64007638,23.19739 0,10.36697 5.04003028,19.60488 12.64007638,23.19739 l 46.320278,21.45246 c -13.120079,26.48197 -20.560124,57.78819 -20.560124,90.73669 v 28.84278 c 0,29.15069 -8.640051,59.22519 -17.840107,82.93579 -5.200031,13.34363 -11.1200666,26.48198 -18.000108,38.5939 -2.56001538,4.41365 -3.28001971,10.16168 -1.84001105,15.39649 1.44000865,5.2348 4.80002885,9.13526 8.96005385,10.46962 L 60.877288,485.4654 c 3.36002,1.12907 6.960042,0.30793 9.920059,-2.05287 2.960018,-2.36079 5.040031,-6.26124 5.680034,-10.6749 6.880042,-43.93134 3.440021,-83.34637 -1.68001,-111.57329 -2.560015,-14.57535 -6.000036,-29.45863 -10.800065,-43.1102 v -25.25025 c 0,-30.99828 8.160049,-60.25164 22.320135,-83.65431 10.320062,-15.90971 23.680139,-28.74012 39.360239,-36.64366 l 125.60075,-63.33093 c 6.56004,-3.28459 14.00009,0.82115 16.5601,9.2379 2.56002,8.41675 -0.64,17.96258 -7.20004,21.24717 l -125.60076,63.33092 c -9.92006,5.02953 -18.64011,12.72777 -25.76015,22.17096 l 127.68077,59.12255 c 6.08003,2.77138 12.48007,4.20837 18.96011,4.20837 6.48004,0 12.88008,-1.43699 18.96011,-4.20837 L 499.35992,180.61474 C 506.95997,177.12487 512,167.78432 512,157.41735 c 0,-10.36698 -5.04003,-19.60487 -12.64008,-23.19739 L 274.95857,30.242274 C 268.87854,27.470905 262.4785,26.033898 255.99846,26.033898 Z M 102.39754,411.97278 c 0,36.2331 68.80041,73.9032 153.60092,73.9032 84.80051,0 153.60092,-37.6701 153.60092,-73.9032 L 397.35931,262.7294 283.59863,315.48807 c -8.88006,4.10572 -18.24011,6.1586 -27.60017,6.1586 -9.36006,0 -18.80011,-2.05288 -27.60017,-6.1586 L 114.63761,262.7294 Z"
     id="path132"
     style="stroke-width:0.9" />
</svg>
