<svg viewBox="0 0 24 24" fill="currentColor" xmlns="http://www.w3.org/2000/svg">
<path d="M6.36131 5.23356L12 10.8723L17.6387 5.23356C17.9501 4.92215 18.455 4.92215 18.7664 5.23356C19.0779 5.54498 19.0779 6.04989 18.7664 6.3613L13.1277 12L18.7664 17.6387C19.0779 17.9501 19.0779 18.455 18.7664 18.7664C18.455 19.0779 17.9501 19.0779 17.6387 18.7664L12 13.1277L6.3613 18.7664C6.04989 19.0779 5.54498 19.0779 5.23356 18.7664C4.92215 18.455 4.92215 17.9501 5.23356 17.6387L10.8723 12L5.23357 6.3613C4.92215 6.04989 4.92215 5.54498 5.23357 5.23356C5.54498 4.92215 6.04989 4.92215 6.36131 5.23356Z" />
</svg>
