<svg viewBox="0 0 24 24" fill="currentColor" xmlns="http://www.w3.org/2000/svg">
<path d="M21.4286 0H2.57143C1.15179 0 0 1.15179 0 2.57143V21.4286C0 22.8482 1.15179 24 2.57143 24H21.4286C22.8482 24 24 22.8482 24 21.4286V2.57143C24 1.15179 22.8482 0 21.4286 0ZM19.5 12C19.5 16.1421 16.1421 19.5 12 19.5C10.7231 19.5 9.5208 19.1809 8.46837 18.6181L4.5 19.5L5.5 16L5.54913 15.828C4.88272 14.7074 4.5 13.3984 4.5 12C4.5 7.85786 7.85786 4.5 12 4.5C16.1421 4.5 19.5 7.85786 19.5 12Z"/>
<path d="M11.6621 8.10078C11.7637 8.0349 11.8809 8 12.0005 8C12.1201 8 12.2373 8.0349 12.3389 8.10078C12.4406 8.16665 12.5227 8.26089 12.5759 8.37289L13.4644 10.2496L15.4504 10.5508C15.5687 10.5687 15.6801 10.6208 15.7716 10.7012C15.8631 10.7817 15.9313 10.8874 15.9684 11.0063C16.0055 11.1253 16.01 11.2527 15.9815 11.3742C15.953 11.4957 15.8925 11.6064 15.807 11.6938L14.3696 13.1546L14.708 15.2155C14.7284 15.339 14.7153 15.466 14.6702 15.5822C14.6251 15.6983 14.5497 15.7988 14.4527 15.8724C14.3556 15.946 14.2408 15.9896 14.1213 15.9984C14.002 16.0071 13.8829 15.9808 13.7772 15.9224L12.0005 14.9487L10.2234 15.9226C10.1177 15.9801 9.99814 16.0062 9.87933 15.9972C9.76053 15.9881 9.64647 15.9447 9.54989 15.8718C9.4533 15.7988 9.378 15.6993 9.33238 15.5842C9.28676 15.4691 9.27262 15.343 9.29155 15.22L9.29206 15.2166L9.63141 13.1545L8.19516 11.6949C8.10901 11.6077 8.04777 11.4967 8.01887 11.375C7.98994 11.2532 7.99435 11.1253 8.03157 11.006C8.0688 10.8867 8.13735 10.7807 8.2294 10.7001C8.32117 10.6199 8.43262 10.5681 8.55109 10.5507L10.5366 10.2496L11.4249 8.37335C11.4781 8.26135 11.5604 8.16665 11.6621 8.10078Z"/>
</svg>
