<svg viewBox="0 0 24 24" fill="currentColor" xmlns="http://www.w3.org/2000/svg">
<path d="M9.33333 14.6667H6.37333C5.74461 14.6643 5.1423 14.4135 4.69772 13.9689C4.25314 13.5244 4.00234 12.9221 4 12.2933V6.37333C4.00234 5.74461 4.25314 5.1423 4.69772 4.69772C5.1423 4.25314 5.74461 4.00234 6.37333 4H12.2933C12.9221 4.00234 13.5244 4.25314 13.9689 4.69772C14.4135 5.1423 14.6643 5.74461 14.6667 6.37333V9.33333H17.3333C18.0406 9.33333 18.7189 9.61428 19.219 10.1144C19.719 10.6145 20 11.2928 20 12V17.3333C20 18.0406 19.719 18.7189 19.219 19.219C18.7189 19.719 18.0406 20 17.3333 20H12C11.2928 20 10.6145 19.719 10.1144 19.219C9.61428 18.7189 9.33333 18.0406 9.33333 17.3333V14.6667ZM9.33333 12.8889V12C9.33333 11.2928 9.61428 10.6145 10.1144 10.1144C10.6145 9.61428 11.2928 9.33333 12 9.33333H12.8889V6.37333C12.8889 6.21538 12.8261 6.0639 12.7145 5.95221C12.6028 5.84052 12.4513 5.77778 12.2933 5.77778H6.37333C6.21538 5.77778 6.0639 5.84052 5.95221 5.95221C5.84052 6.0639 5.77778 6.21538 5.77778 6.37333V12.2933C5.77778 12.4513 5.84052 12.6028 5.95221 12.7145C6.0639 12.8261 6.21538 12.8889 6.37333 12.8889H9.33333ZM11.3715 11.3715C11.5382 11.2048 11.7643 11.1111 12 11.1111H17.3333C17.5691 11.1111 17.7952 11.2048 17.9619 11.3715C18.1286 11.5382 18.2222 11.7643 18.2222 12V17.3333C18.2222 17.5691 18.1286 17.7952 17.9619 17.9619C17.7952 18.1286 17.5691 18.2222 17.3333 18.2222H12C11.7643 18.2222 11.5382 18.1286 11.3715 17.9619C11.2048 17.7952 11.1111 17.5691 11.1111 17.3333V12C11.1111 11.7643 11.2048 11.5382 11.3715 11.3715Z"/>
</svg>