<svg viewBox="0 0 24 24" fill="currentColor" xmlns="http://www.w3.org/2000/svg">
<path fill="#fff" fill-rule="evenodd" clip-rule="evenodd" d="M21.4286 0H2.57143C1.15179 0 0 1.15179 0 2.57143V21.4286C0 22.8482 1.15179 24 2.57143 24H21.4286C22.8482 24 24 22.8482 24 21.4286V2.57143C24 1.15179 22.8482 0 21.4286 0ZM8.58128 5.51505C9.69157 4.88956 10.9447 4.5616 12.219 4.56299L12.227 4.56399C13.6938 4.56139 15.1281 4.99624 16.3465 5.81296C17.5649 6.62969 18.5121 7.79119 19.067 9.14899C19.6156 10.502 19.7434 11.989 19.4335 13.4157C19.1236 14.8425 18.3905 16.1425 17.33 17.146C16.2636 18.1568 14.9213 18.8284 13.473 19.0759C12.0247 19.3233 10.5355 19.1354 9.19403 18.536L4.40002 19.61L5.73402 15.353C5.12534 14.2416 4.81868 12.9901 4.84465 11.7232C4.87062 10.4564 5.2283 9.21847 5.88202 8.13299C6.54117 7.04235 7.47099 6.14054 8.58128 5.51505Z" />
</svg>
