<svg viewBox="0 0 24 24" fill="currentColor" xmlns="http://www.w3.org/2000/svg">
<path fill="#fff" d="M7.60325 12.6489C7.60325 13.5972 8.30134 14.3695 9.14856 14.3695C10.0093 14.3695 10.6939 13.5972 10.6939 12.6488C10.7074 11.7072 10.0161 10.9282 9.14856 10.9282C8.2878 10.9282 7.60325 11.7005 7.60325 12.6489Z" />
<path fill="#fff" d="M13.3168 12.6489C13.3168 13.5972 14.0149 14.3695 14.8621 14.3695C15.7296 14.3695 16.4074 13.5972 16.4074 12.6488C16.4209 11.7072 15.7296 10.9282 14.8621 10.9282C14.0013 10.9282 13.3168 11.7005 13.3168 12.6489Z" />
<path fill="#fff" fill-rule="evenodd" clip-rule="evenodd" d="M2.57143 0H21.4286C22.8482 0 24 1.15179 24 2.57143V21.4286C24 22.8482 22.8482 24 21.4286 24H2.57143C1.15179 24 0 22.8482 0 21.4286V2.57143C0 1.15179 1.15179 0 2.57143 0ZM17.9588 6.57242C17.9684 6.57634 17.9763 6.58355 17.9811 6.59275C19.9229 9.42842 20.882 12.6272 20.5233 16.3096C20.5226 16.3174 20.5203 16.3249 20.5164 16.3317C20.5126 16.3384 20.5073 16.3443 20.501 16.3489C19.2013 17.3049 17.7469 18.0336 16.2004 18.5037C16.1895 18.507 16.1778 18.5068 16.167 18.5032C16.1561 18.4995 16.1467 18.4926 16.1401 18.4833C15.813 18.0327 15.5197 17.5588 15.2624 17.0655C15.2589 17.0587 15.2568 17.0512 15.2564 17.0435C15.256 17.0359 15.2572 17.0282 15.2599 17.0211C15.2627 17.0139 15.2669 17.0074 15.2724 17.002C15.2779 16.9966 15.2844 16.9924 15.2916 16.9896C15.7561 16.8162 16.205 16.6041 16.6336 16.3556C16.6414 16.351 16.6479 16.3445 16.6525 16.3368C16.6572 16.3291 16.6599 16.3204 16.6604 16.3114C16.6608 16.3025 16.6591 16.2935 16.6552 16.2854C16.6514 16.2772 16.6456 16.2702 16.6383 16.2648C16.5475 16.1977 16.4574 16.1273 16.3713 16.0568C16.3635 16.0505 16.3541 16.0465 16.3441 16.0453C16.3342 16.0441 16.3241 16.0458 16.315 16.05C13.5343 17.3256 10.4877 17.3256 7.67372 16.05C7.66468 16.046 7.65469 16.0446 7.64488 16.0459C7.63506 16.0472 7.62581 16.0512 7.61816 16.0575C7.5321 16.1279 7.44191 16.1977 7.35179 16.2648C7.34458 16.2702 7.33883 16.2773 7.33505 16.2855C7.33127 16.2937 7.32957 16.3026 7.33011 16.3116C7.33064 16.3206 7.33339 16.3293 7.33812 16.337C7.34284 16.3446 7.34939 16.351 7.3572 16.3556C7.78673 16.602 8.23523 16.8142 8.69851 16.9903C8.70573 16.9929 8.7123 16.997 8.7178 17.0024C8.7233 17.0077 8.7276 17.0141 8.73042 17.0212C8.73323 17.0283 8.7345 17.036 8.73414 17.0436C8.73377 17.0512 8.73179 17.0587 8.72831 17.0655C8.47529 17.5615 8.1815 18.036 7.84994 18.4841C7.84311 18.4931 7.83366 18.4998 7.82288 18.5033C7.81209 18.5068 7.80048 18.507 7.78961 18.5037C6.24589 18.0321 4.79403 17.3035 3.49601 16.3489C3.48978 16.3441 3.48458 16.338 3.48074 16.3312C3.4769 16.3243 3.47448 16.3168 3.47364 16.309C3.17408 13.1237 3.78473 9.89855 6.01389 6.59208C6.01934 6.58333 6.02739 6.57647 6.03693 6.57245C7.15163 6.06397 8.32817 5.70166 9.53697 5.49466C9.54793 5.49294 9.55917 5.49455 9.5692 5.49926C9.57924 5.50398 9.58761 5.51158 9.59323 5.52109C9.75711 5.80904 9.90487 6.10576 10.0358 6.40988C11.3387 6.21344 12.664 6.21344 13.9668 6.40988C14.0969 6.10653 14.2424 5.80989 14.4026 5.52109C14.4079 5.51137 14.4163 5.50359 14.4264 5.49884C14.4365 5.4941 14.4478 5.49263 14.4588 5.49466C15.6675 5.7021 16.8439 6.06438 17.9588 6.57242Z" />
</svg>
