<svg width="24" height="24" viewBox="0 0 24 24" fill="currentColor" xmlns="http://www.w3.org/2000/svg">
<path fill="#fff" fill-rule="evenodd" clip-rule="evenodd" d="M3 0C1.34315 0 0 1.34315 0 3V21C0 22.6569 1.34315 24 3 24H21C22.6569 24 24 22.6569 24 21V3C24 1.34315 22.6569 0 21 0H3ZM15.3125 13.0625H13.125V20.5H9.625V13.0625H7V9.5625H9.625V7.1125C9.625 4.44987 11.312 3 13.6876 3C14.8251 3 15.9023 3.08488 16.1875 3.1225V6.0625H14.875C13.125 6.0625 13.125 6.91125 13.125 7.8125V9.5625H16.1875L15.3125 13.0625Z"/>
</svg>
