<svg viewBox="0 0 24 24" fill="currentColor" xmlns="http://www.w3.org/2000/svg">
<path d="M4.84091 4.63636C4.72794 4.63636 4.63636 4.72794 4.63636 4.84091V8.93182C4.63636 9.04479 4.72794 9.13636 4.84091 9.13636H8.93182C9.04479 9.13636 9.13636 9.04479 9.13636 8.93182V4.84091C9.13636 4.72794 9.04479 4.63636 8.93182 4.63636H4.84091ZM3 4.84091C3 3.8242 3.8242 3 4.84091 3H8.93182C9.94852 3 10.7727 3.8242 10.7727 4.84091V8.93182C10.7727 9.94852 9.94852 10.7727 8.93182 10.7727H4.84091C3.8242 10.7727 3 9.94852 3 8.93182V4.84091Z"/>
<path d="M15.0682 4.63636C14.9552 4.63636 14.8636 4.72794 14.8636 4.84091V8.93182C14.8636 9.04479 14.9552 9.13636 15.0682 9.13636H19.1591C19.2721 9.13636 19.3636 9.04479 19.3636 8.93182V4.84091C19.3636 4.72794 19.2721 4.63636 19.1591 4.63636H15.0682ZM13.2273 4.84091C13.2273 3.8242 14.0515 3 15.0682 3H19.1591C20.1758 3 21 3.8242 21 4.84091V8.93182C21 9.94852 20.1758 10.7727 19.1591 10.7727H15.0682C14.0515 10.7727 13.2273 9.94852 13.2273 8.93182V4.84091Z"/>
<path d="M4.84091 14.8636C4.72794 14.8636 4.63636 14.9552 4.63636 15.0682V19.1591C4.63636 19.2721 4.72794 19.3636 4.84091 19.3636H8.93182C9.04479 19.3636 9.13636 19.2721 9.13636 19.1591V15.0682C9.13636 14.9552 9.04479 14.8636 8.93182 14.8636H4.84091ZM3 15.0682C3 14.0515 3.8242 13.2273 4.84091 13.2273H8.93182C9.94852 13.2273 10.7727 14.0515 10.7727 15.0682V19.1591C10.7727 20.1758 9.94852 21 8.93182 21H4.84091C3.8242 21 3 20.1758 3 19.1591V15.0682Z"/>
<path d="M15.0682 14.8636C14.9552 14.8636 14.8636 14.9552 14.8636 15.0682V19.1591C14.8636 19.2721 14.9552 19.3636 15.0682 19.3636H19.1591C19.2721 19.3636 19.3636 19.2721 19.3636 19.1591V15.0682C19.3636 14.9552 19.2721 14.8636 19.1591 14.8636H15.0682ZM13.2273 15.0682C13.2273 14.0515 14.0515 13.2273 15.0682 13.2273H19.1591C20.1758 13.2273 21 14.0515 21 15.0682V19.1591C21 20.1758 20.1758 21 19.1591 21H15.0682C14.0515 21 13.2273 20.1758 13.2273 19.1591V15.0682Z"/>
</svg>
