<svg viewBox="0 0 24 24" fill="currentColor" xmlns="http://www.w3.org/2000/svg">
<path fill-rule="evenodd" clip-rule="evenodd" d="M23 12C23 18.0751 18.0751 23 12 23C5.92487 23 1 18.0751 1 12C1 5.92487 5.92487 1 12 1C18.0751 1 23 5.92487 23 12ZM13.375 6.5C13.375 7.25939 12.7594 7.875 12 7.875C11.2406 7.875 10.625 7.25939 10.625 6.5C10.625 5.74061 11.2406 5.125 12 5.125C12.7594 5.125 13.375 5.74061 13.375 6.5ZM10.625 10.625C9.86561 10.625 9.25 11.2406 9.25 12C9.25 12.7594 9.86561 13.375 10.625 13.375V17.5C10.625 18.2594 11.2406 18.875 12 18.875H13.375C14.1344 18.875 14.75 18.2594 14.75 17.5C14.75 16.7406 14.1344 16.125 13.375 16.125V12C13.375 11.2406 12.7594 10.625 12 10.625H10.625Z" />
</svg>
