<svg viewBox="0 0 24 24" fill="currentColor" xmlns="http://www.w3.org/2000/svg">
<path fill="#fff" fill-rule="evenodd" clip-rule="evenodd" d="M2.72727 0C1.22104 0 0 1.22104 0 2.72727V21.2727C0 22.779 1.22104 24 2.72727 24H21.2727C22.779 24 24 22.779 24 21.2727V2.72727C24 1.22104 22.779 0 21.2727 0H2.72727ZM4.00004 5.91715C4.00004 6.9755 4.85884 7.85212 5.91719 7.85212C6.97554 7.85212 7.83434 6.9755 7.83434 5.91715C7.83434 4.8588 6.97554 4 5.91719 4C4.85884 4 4.00004 4.8588 4.00004 5.91715ZM4.26367 19.9644H7.57414V9.30602H4.26367V19.9644ZM16.661 19.9644V14.776C16.661 13.5394 16.636 11.9537 14.9398 11.9537C13.2187 11.9537 12.955 13.2971 12.955 14.6869V19.9644H9.64805V9.30602H12.8231V10.7599H12.8694C13.3113 9.9225 14.391 9.03876 16.0017 9.03876C19.3514 9.03876 19.9679 11.2446 19.9679 14.1096V19.9644H16.661Z" />
</svg>
