<svg viewBox="0 0 24 24" fill="currentColor" xmlns="http://www.w3.org/2000/svg">
  <path d="M6.98741 5.00089C6.98714 5.53129 6.77684 6.03987 6.40276 6.41473C6.02868 6.7896 5.52147 7.00004 4.99271 6.99978C4.46394 6.99951 3.95694 6.78856 3.58324 6.41332C3.20953 6.03808 2.99974 5.52929 3 4.99889C3.00026 4.46849 3.21057 3.95991 3.58465 3.58505C3.95873 3.21018 4.46594 2.99974 4.9947 3C5.52346 3.00027 6.03047 3.21122 6.40417 3.58646C6.77788 3.9617 6.98767 4.47049 6.98741 5.00089ZM7.04722 8.4807H3.05981V21H7.04722V8.4807ZM13.3473 8.4807H9.37985V21H13.3075V14.4304C13.3075 10.7706 18.0624 10.4306 18.0624 14.4304V21H22V13.0704C22 6.90078 14.9622 7.13077 13.3075 10.1606L13.3473 8.4807Z" />
</svg>
