<svg viewBox="0 0 24 24" fill="currentColor" xmlns="http://www.w3.org/2000/svg">
<path fill-rule="evenodd" clip-rule="evenodd" d="M8.81893 18.1366C9.59431 19.2412 10.5028 20.5354 11.5657 22.0763C11.9567 22.6412 12.7932 22.6412 13.1843 22.0763C14.2472 20.5354 15.1557 19.2412 15.9311 18.1366C19.5032 13.0477 20.25 11.9839 20.25 9.375C20.25 5.02574 16.7242 1.5 12.375 1.5C8.02574 1.5 4.5 5.02574 4.5 9.375C4.5 11.9839 5.2468 13.0477 8.81893 18.1366ZM15.6562 9.375C15.6562 11.1872 14.1872 12.6562 12.375 12.6562C10.5628 12.6562 9.09372 11.1872 9.09372 9.375C9.09372 7.56281 10.5628 6.09375 12.375 6.09375C14.1872 6.09375 15.6562 7.56281 15.6562 9.375Z" />
</svg>
