<svg viewBox="0 0 24 24" fill="currentColor" xmlns="http://www.w3.org/2000/svg">
<path fill-rule="evenodd" d="M2.5 0C1.11929 0 0 1.11929 0 2.5V21.5C0 22.8807 1.11929 24 2.5 24H21.5C22.8807 24 24 22.8807 24 21.5V2.5C24 1.11929 22.8807 0 21.5 0H2.5ZM12.0014 12.5489L4.82822 6H19.1722L12.0014 12.5489ZM14.0728 12L20 6.58675V17.4133L14.0728 12ZM12.0015 13.7355C11.8941 13.7355 11.7867 13.6956 11.6992 13.6157L10.6648 12.6713L4.82822 18H19.1722L13.3376 12.6714L12.3038 13.6156C12.2162 13.6956 12.1089 13.7355 12.0015 13.7355ZM9.9295 12L4 17.4135V6.58651L9.9295 12Z"/>
</svg>
