<svg viewBox="0 0 24 24" fill="currentColor" xmlns="http://www.w3.org/2000/svg">
<path fill="#fff" fill-rule="evenodd" clip-rule="evenodd" d="M2.57143 0H21.4286C22.8482 0 24 1.15179 24 2.57143V21.4286C24 22.8482 22.8482 24 21.4286 24H2.57143C1.15179 24 0 22.8482 0 21.4286V2.57143C0 1.15179 1.15179 0 2.57143 0ZM15.4008 17.1462C15.6913 18.6259 17.1741 19.5237 18.6077 19.7691L18.6122 19.7593C19.5687 19.9461 21.0347 19.907 21.4615 18.8713C21.4096 17.8832 20.2087 17.7134 19.387 17.5972C19.36 17.5933 19.3334 17.5896 19.3072 17.5858C18.2781 17.5446 17.992 16.4188 18.2043 15.61C18.4599 14.2915 19.0544 13.0903 19.6497 11.8879C20.1087 10.9606 20.5681 10.0325 20.8727 9.04933C21.1855 8.02012 21.4828 6.66957 20.5777 5.84012C19.562 5.06931 18.1351 5.24301 16.9864 5.61214C16.4718 5.71293 16.0772 5.42623 15.6769 5.1353C15.3096 4.86844 14.9375 4.59803 14.4633 4.61985C13.8366 4.57007 13.3895 4.94545 12.9447 5.31889C12.4777 5.71105 12.0132 6.10106 11.3458 5.99429C10.9597 5.88457 10.5893 5.70789 10.2185 5.53102C9.53996 5.20734 8.86006 4.88301 8.0797 4.96726C6.72654 4.94663 5.88739 6.19513 5.35886 7.24279C4.65491 8.83002 4.05822 10.4661 3.5554 12.1239C3.44333 12.584 3.29742 13.0409 3.15126 13.4985C2.81212 14.5604 2.47166 15.6265 2.54975 16.7455C2.50505 17.8518 3.53082 18.6845 4.59457 18.8235C5.57787 18.9375 6.87963 18.8116 7.38804 17.8518C7.65484 17.2544 7.82967 16.623 8.00502 15.9896C8.18658 15.3339 8.3687 14.6761 8.65404 14.052L10.5759 9.62038C11.0721 8.69215 12.5135 9.38588 12.1559 10.3369C12.0139 11.4234 11.5747 12.4255 11.1357 13.4272C10.9049 13.9539 10.6741 14.4806 10.4866 15.0194C10.167 15.7055 9.90775 16.815 10.8855 17.106C11.766 17.4132 12.5213 16.7 12.9549 16.0344C13.5551 15.1127 14.017 14.1166 14.4785 13.1213C14.6949 12.6547 14.9112 12.1883 15.1416 11.7298C15.2977 11.4383 15.4373 11.1347 15.5772 10.8305C15.935 10.0526 16.2946 9.27055 16.9372 8.67586C17.6479 8.06355 18.563 8.97985 18.1686 9.73112L16.1551 13.4082C15.4924 14.5373 15.2377 15.8586 15.4008 17.1462Z" />
</svg>
