<svg width="24" height="24" viewBox="0 0 24 24" fill="currentColor" xmlns="http://www.w3.org/2000/svg">
<path fill="#fff" fill-rule="evenodd" clip-rule="evenodd" d="M3 0C1.34315 0 0 1.34315 0 3V21C0 22.6569 1.34315 24 3 24H21C22.6569 24 24 22.6569 24 21V3C24 1.34315 22.6569 0 21 0H3ZM20.6438 11.0572C20.8622 11.3689 20.9859 11.7371 20.9998 12.1174C21.0055 12.4898 20.9058 12.8561 20.7121 13.1742C20.5184 13.4922 20.2387 13.7489 19.9052 13.9147C19.9204 14.1125 19.9204 14.3113 19.9052 14.5092C19.9052 17.5361 16.3784 19.9954 12.0272 19.9954C7.67609 19.9954 4.14923 17.5361 4.14923 14.5092C4.13402 14.3113 4.13402 14.1125 4.14923 13.9147C3.88933 13.7952 3.65849 13.6207 3.47273 13.4033C3.28696 13.1858 3.15071 12.9305 3.07341 12.6551C2.99611 12.3797 2.97962 12.0908 3.02507 11.8084C3.07052 11.526 3.17683 11.2569 3.33663 11.0197C3.49643 10.7825 3.7059 10.5828 3.95053 10.4346C4.19515 10.2864 4.46908 10.1931 4.75333 10.1613C5.03758 10.1295 5.32535 10.1598 5.5967 10.2503C5.86805 10.3407 6.11649 10.4891 6.3248 10.6851C7.88185 9.62908 9.71367 9.05136 11.5948 9.023L12.5948 4.33404C12.606 4.27976 12.6279 4.22824 12.6592 4.18248C12.6905 4.13672 12.7305 4.09762 12.777 4.06746C12.8235 4.03729 12.8756 4.01666 12.9301 4.00675C12.9846 3.99684 13.0406 3.99785 13.0947 4.00973L16.4054 4.67186C16.5671 4.39409 16.8225 4.18303 17.1257 4.07659C17.429 3.97014 17.7603 3.97527 18.0601 4.09106C18.3599 4.20685 18.6086 4.42571 18.7616 4.70835C18.9146 4.991 18.9619 5.31892 18.8949 5.63326C18.8279 5.9476 18.651 6.22777 18.3961 6.42348C18.1412 6.61919 17.8248 6.71762 17.5038 6.70111C17.1829 6.6846 16.8783 6.55422 16.6448 6.33338C16.4113 6.11254 16.2641 5.8157 16.2297 5.49614L13.338 4.88807L12.4596 9.10408C14.3179 9.14394 16.1249 9.72123 17.6621 10.7662C17.9367 10.5026 18.2817 10.3241 18.6554 10.2522C19.0292 10.1803 19.4158 10.218 19.7686 10.3608C20.1214 10.5037 20.4253 10.7455 20.6438 11.0572ZM7.71464 12.718C7.56616 12.9402 7.48691 13.2015 7.48691 13.4687C7.48691 13.8271 7.62928 14.1708 7.88269 14.4242C8.13611 14.6776 8.47981 14.82 8.83819 14.82C9.10545 14.82 9.36671 14.7408 9.58893 14.5923C9.81115 14.4438 9.98434 14.2328 10.0866 13.9858C10.1889 13.7389 10.2157 13.4672 10.1635 13.2051C10.1114 12.943 9.98268 12.7022 9.7937 12.5132C9.60472 12.3242 9.36394 12.1955 9.10182 12.1434C8.83969 12.0913 8.568 12.118 8.32108 12.2203C8.07417 12.3226 7.86312 12.4958 7.71464 12.718ZM12.0002 18.2253C13.1996 18.2749 14.3792 17.9072 15.3379 17.1848V17.2388C15.3734 17.2042 15.4017 17.163 15.4212 17.1174C15.4408 17.0719 15.4512 17.0229 15.4518 16.9733C15.4524 16.9238 15.4433 16.8746 15.4249 16.8285C15.4065 16.7825 15.3792 16.7405 15.3446 16.7051C15.31 16.6696 15.2688 16.6412 15.2232 16.6217C15.1777 16.6021 15.1287 16.5918 15.0792 16.5911C15.0296 16.5905 14.9804 16.5996 14.9344 16.618C14.8883 16.6364 14.8464 16.6637 14.8109 16.6983C13.9908 17.2866 12.9945 17.5774 11.9867 17.5226C10.9801 17.5676 9.98845 17.2672 9.17602 16.6713C9.106 16.6138 9.01712 16.5844 8.92665 16.5889C8.83619 16.5933 8.75061 16.6313 8.68657 16.6953C8.62252 16.7594 8.58459 16.8449 8.58014 16.9354C8.5757 17.0259 8.60507 17.1147 8.66253 17.1848C9.62123 17.9072 10.8008 18.2749 12.0002 18.2253ZM14.3439 14.6463C14.5661 14.7948 14.8274 14.8741 15.0946 14.8741L15.0811 14.9281C15.2644 14.9301 15.4461 14.8948 15.6152 14.8243C15.7844 14.7539 15.9375 14.6498 16.0651 14.5183C16.1928 14.3869 16.2924 14.2308 16.3578 14.0597C16.4233 13.8885 16.4533 13.7059 16.4459 13.5228C16.4459 13.2555 16.3667 12.9943 16.2182 12.772C16.0697 12.5498 15.8587 12.3766 15.6118 12.2744C15.3648 12.1721 15.0931 12.1453 14.831 12.1975C14.5689 12.2496 14.3281 12.3783 14.1391 12.5673C13.9502 12.7563 13.8215 12.997 13.7693 13.2592C13.7172 13.5213 13.7439 13.793 13.8462 14.0399C13.9485 14.2868 14.1217 14.4979 14.3439 14.6463Z" />
</svg>
