<svg viewBox="0 0 24 24" fill="currentColor" xmlns="http://www.w3.org/2000/svg">
<path fill-rule="evenodd" clip-rule="evenodd" d="M22 20.6069L17.7832 16.3911C19.0407 14.8224 19.7246 12.8713 19.7218 10.8609C19.7218 5.96968 15.7521 2 10.8609 2C5.96968 2 2 5.96968 2 10.8609C2 15.7521 5.96968 19.7218 10.8609 19.7218C12.8713 19.7246 14.8224 19.0407 16.3911 17.7832L20.6069 22L22 20.6069ZM17.7528 10.8609C17.7556 12.6532 17.0578 14.3756 15.8083 15.6606L15.6606 15.8082C14.3757 17.0577 12.6533 17.7555 10.861 17.7527C7.05276 17.7527 3.96917 14.6681 3.96917 10.8609C3.96917 7.0527 7.05276 3.96912 10.861 3.96912C14.6682 3.96912 17.7528 7.0527 17.7528 10.8609Z"/>
</svg>
