<svg viewBox="0 0 24 24" fill="currentColor" xmlns="http://www.w3.org/2000/svg">
<path fill="#fff" fill-rule="evenodd" clip-rule="evenodd" d="M2.57143 0H21.4286C22.8482 0 24 1.15179 24 2.57143V21.4286C24 22.8482 22.8482 24 21.4286 24H2.57143C1.15179 24 0 22.8482 0 21.4286V2.57143C0 1.15179 1.15179 0 2.57143 0ZM18.8196 8.9625C18.8196 8.8125 18.8196 8.65714 18.8089 8.50714C19.4946 8.00893 20.0946 7.3875 20.5714 6.68572C19.9393 6.95893 19.2536 7.15714 18.5464 7.23214C19.275 6.79822 19.8268 6.1125 20.0893 5.29821C19.4143 5.7 18.6536 5.99464 17.8607 6.14464C17.2178 5.45893 16.3071 5.03572 15.2946 5.03572C13.1518 5.03572 11.3678 6.96964 11.8661 9.35357C8.95177 9.20357 6.35356 7.81072 4.6232 5.67857C4.31784 6.19822 4.14641 6.79822 4.14641 7.45179C4.14449 8.62738 4.73187 9.7257 5.7107 10.3768C5.13748 10.3554 4.59105 10.1946 4.12498 9.93214V9.975C4.12498 11.6839 5.33034 13.0982 6.93748 13.425C6.38034 13.5696 5.89284 13.5696 5.35177 13.4893C5.79641 14.8821 7.09284 15.8946 8.6357 15.9268C7.43034 16.8696 5.91963 17.4268 4.27498 17.4268C3.9857 17.4268 3.71248 17.4161 3.42855 17.3839C4.98213 18.3804 6.83034 18.9589 8.8232 18.9589C15.2839 18.9589 18.8196 13.6071 18.8196 8.9625Z" />
</svg>
