<svg viewBox="0 0 24 24" fill="currentColor" xmlns="http://www.w3.org/2000/svg">
<path fill="#fff" d="M15.3231 12L10.3385 14.8269V9.17308L15.3231 12Z" />
<path fill="#fff" fill-rule="evenodd" clip-rule="evenodd" d="M3.6 0H20.4C22.3882 0 24 1.61177 24 3.6V20.4C24 22.3882 22.3882 24 20.4 24H3.6C1.61177 24 0 22.3882 0 20.4V3.6C0 1.61177 1.61177 0 3.6 0ZM20.3077 12C20.3077 12 20.3077 8.99538 19.928 7.55608C19.7195 6.76292 19.1031 6.13777 18.318 5.92292C16.8982 5.53846 12 5.53846 12 5.53846C12 5.53846 7.10428 5.53846 5.682 5.92292C4.90025 6.13454 4.28298 6.7605 4.07197 7.55608C3.69231 8.99538 3.69231 12 3.69231 12C3.69231 12 3.69231 15.0046 4.07197 16.4439C4.28049 17.2371 4.89692 17.8622 5.682 18.0771C7.10428 18.4615 12 18.4615 12 18.4615C12 18.4615 16.8982 18.4615 18.318 18.0771C19.0998 17.8655 19.717 17.2395 19.928 16.4439C20.3077 15.0046 20.3077 12 20.3077 12Z" />
</svg>
