<?xml version="1.0" encoding="UTF-8" standalone="no"?>
<svg
   viewBox="0 0 512 512"
   version="1.1"
   id="svg1202"
   sodipodi:docname="studio_save.svg"
   inkscape:version="1.2.2 (b0a84865, 2022-12-01)"
   width="512"
   height="512"
   xmlns:inkscape="http://www.inkscape.org/namespaces/inkscape"
   xmlns:sodipodi="http://sodipodi.sourceforge.net/DTD/sodipodi-0.dtd"
   xmlns="http://www.w3.org/2000/svg"
   xmlns:svg="http://www.w3.org/2000/svg">
  <defs
     id="defs1206" />
  <sodipodi:namedview
     id="namedview1204"
     pagecolor="#ffffff"
     bordercolor="#000000"
     borderopacity="0.25"
     inkscape:showpageshadow="2"
     inkscape:pageopacity="0.0"
     inkscape:pagecheckerboard="0"
     inkscape:deskcolor="#d1d1d1"
     showgrid="false"
     inkscape:zoom="0.4609375"
     inkscape:cx="-812.47458"
     inkscape:cy="256"
     inkscape:window-width="1474"
     inkscape:window-height="637"
     inkscape:window-x="212"
     inkscape:window-y="567"
     inkscape:window-maximized="0"
     inkscape:current-layer="svg1202" />
  <rect
     style="fill:#2d2a46;fill-opacity:1;stroke:#656184;stroke-width:15;stroke-dasharray:none;stroke-opacity:1;stop-color:#000000"
     id="rect463"
     width="400"
     height="400"
     x="56"
     y="10.508471"
     rx="100"
     ry="100"
     inkscape:label="rect463" />
  <!--!Font Awesome Free 6.5.2 by @fontawesome - https://fontawesome.com License - https://fontawesome.com/license/free Copyright 2024 Fonticons, Inc.-->
  <path
     d="m 176.8,99.62847 c -17.4735,0 -31.68,14.2065 -31.68,31.68 v 158.4 c 0,17.4735 14.2065,31.68 31.68,31.68 h 158.4 c 17.4735,0 31.68,-14.2065 31.68,-31.68 v -120.1365 c 0,-8.415 -3.3165,-16.4835 -9.2565,-22.4235 L 319.36,108.88497 c -5.94,-5.94 -14.0085,-9.2565 -22.4235,-9.2565 z m 0,47.52 c 0,-8.7615 7.0785,-15.84 15.84,-15.84 h 95.04 c 8.7615,0 15.84,7.0785 15.84,15.84 v 31.68 c 0,8.7615 -7.0785,15.84 -15.84,15.84 h -95.04 c -8.7615,0 -15.84,-7.0785 -15.84,-15.84 z m 79.2,79.2 a 31.68,31.68 0 1 1 0,63.36 31.68,31.68 0 1 1 0,-63.36 z"
     id="path1200"
     style="fill:#f9f9f9;stroke-width:0.495" />
</svg>
