<?xml version="1.0" encoding="UTF-8" standalone="no"?>
<svg
   viewBox="0 0 512 512"
   version="1.1"
   id="svg731"
   sodipodi:docname="studio_settings.svg"
   width="512"
   height="512"
   inkscape:version="1.3.1 (5ab75fa, 2023-11-03)"
   xmlns:inkscape="http://www.inkscape.org/namespaces/inkscape"
   xmlns:sodipodi="http://sodipodi.sourceforge.net/DTD/sodipodi-0.dtd"
   xmlns="http://www.w3.org/2000/svg"
   xmlns:svg="http://www.w3.org/2000/svg">
  <defs
     id="defs735" />
  <sodipodi:namedview
     id="namedview733"
     pagecolor="#ffffff"
     bordercolor="#000000"
     borderopacity="0.25"
     inkscape:showpageshadow="2"
     inkscape:pageopacity="0.0"
     inkscape:pagecheckerboard="0"
     inkscape:deskcolor="#d1d1d1"
     showgrid="false"
     inkscape:zoom="2.0056933"
     inkscape:cx="173.2568"
     inkscape:cy="294.41192"
     inkscape:window-width="2560"
     inkscape:window-height="1440"
     inkscape:window-x="1512"
     inkscape:window-y="0"
     inkscape:window-maximized="0"
     inkscape:current-layer="svg731" />
  <!--!Font Awesome Free 6.5.2 by @fontawesome - https://fontawesome.com License - https://fontawesome.com/license/free Copyright 2024 Fonticons, Inc.-->
  <rect
     style="fill:#2d2a46;fill-opacity:1;stroke:#656184;stroke-width:15;stroke-dasharray:none;stroke-opacity:1;stop-color:#000000"
     id="rect463"
     width="400"
     height="400"
     x="56"
     y="9.6458702"
     rx="100"
     ry="100"
     inkscape:label="rect463" />
  <path
     d="m 366.64132,168.44645 c 1.47552,4.01159 0.23055,8.48427 -2.95106,11.3431 l -19.9657,18.16741 c 0.50721,3.82714 0.78388,7.7465 0.78388,11.71198 0,3.96546 -0.27666,7.88483 -0.78388,11.71197 l 19.9657,18.1674 c 3.18161,2.85883 4.42658,7.33151 2.95106,11.3431 -2.02885,5.48711 -4.47269,10.74366 -7.28542,15.81579 l -2.16718,3.73491 c -3.04326,5.07213 -6.45542,9.86758 -10.19032,14.38637 -2.72051,3.31994 -7.23931,4.42657 -11.297,3.13549 l -25.68335,-8.16149 c -6.17876,4.74935 -13.00307,8.71481 -20.28846,11.71198 l -5.76378,26.3289 c -0.9222,4.19601 -4.14992,7.51594 -8.39206,8.2076 -6.3632,1.06054 -12.91084,1.61385 -19.59681,1.61385 -6.68597,0 -13.23361,-0.55331 -19.59681,-1.61385 -4.24213,-0.69166 -7.46984,-4.01159 -8.39205,-8.2076 l -5.76376,-26.3289 c -7.28541,-2.99717 -14.10971,-6.96263 -20.28847,-11.71198 l -25.63725,8.2076 c -4.05769,1.29109 -8.57649,0.13834 -11.29698,-3.13549 -3.73493,-4.51879 -7.14707,-9.31425 -10.19035,-14.38636 l -2.16717,-3.73493 c -2.81272,-5.07211 -5.25656,-10.32867 -7.28541,-15.81578 -1.47552,-4.01159 -0.23055,-8.48426 2.95105,-11.34309 l 19.9657,-18.16741 c -0.50721,-3.87325 -0.78388,-7.79262 -0.78388,-11.75808 0,-3.96548 0.27667,-7.88484 0.78388,-11.71198 l -19.9657,-18.16741 c -3.1816,-2.85883 -4.42657,-7.33151 -2.95105,-11.3431 2.02885,-5.4871 4.47269,-10.74366 7.28541,-15.81577 l 2.16717,-3.73493 c 3.04328,-5.07211 6.45542,-9.86757 10.19035,-14.38636 2.72049,-3.31993 7.23929,-4.42658 11.29698,-3.13549 l 25.68337,8.16149 c 6.17876,-4.74934 13.00305,-8.71482 20.28846,-11.71197 l 5.76377,-26.3289 c 0.9222,-4.196035 4.14992,-7.515975 8.39205,-8.207625 6.36319,-1.10664 12.91084,-1.65996 19.5968,-1.65996 6.68597,0 13.23363,0.55332 19.59681,1.61385 4.24215,0.69165 7.46985,4.01159 8.39207,8.207625 l 5.76376,26.32889 c 7.28541,2.99716 14.10971,6.96264 20.28847,11.71199 l 25.68335,-8.16151 c 4.0577,-1.29108 8.57649,-0.13832 11.297,3.1355 3.73491,4.5188 7.14707,9.31425 10.19034,14.38636 l 2.16718,3.73493 c 2.81272,5.07211 5.25655,10.32867 7.28539,15.81578 z m -110.61827,78.11061 a 36.888122,36.888122 0 1 0 0,-73.77624 36.888122,36.888122 0 1 0 0,73.77624 z"
     id="path1"
     inkscape:label="path1"
     style="fill:#ffffff;fill-opacity:1;stroke-width:0.461101" />
</svg>
