<?xml version="1.0" encoding="UTF-8" standalone="no"?>
<svg
   viewBox="0 0 512 512"
   version="1.1"
   id="svg731"
   sodipodi:docname="studio_trash.svg"
   width="512"
   height="512"
   inkscape:version="1.3.1 (5ab75fa, 2023-11-03)"
   xml:space="preserve"
   xmlns:inkscape="http://www.inkscape.org/namespaces/inkscape"
   xmlns:sodipodi="http://sodipodi.sourceforge.net/DTD/sodipodi-0.dtd"
   xmlns="http://www.w3.org/2000/svg"
   xmlns:svg="http://www.w3.org/2000/svg"><defs
     id="defs735" /><sodipodi:namedview
     id="namedview733"
     pagecolor="#ffffff"
     bordercolor="#000000"
     borderopacity="0.25"
     inkscape:showpageshadow="2"
     inkscape:pageopacity="0.0"
     inkscape:pagecheckerboard="0"
     inkscape:deskcolor="#d1d1d1"
     showgrid="false"
     inkscape:zoom="2.0056933"
     inkscape:cx="231.09216"
     inkscape:cy="194.69577"
     inkscape:window-width="1512"
     inkscape:window-height="836"
     inkscape:window-x="0"
     inkscape:window-y="38"
     inkscape:window-maximized="0"
     inkscape:current-layer="svg731" /><!--!Font Awesome Free 6.5.2 by @fontawesome - https://fontawesome.com License - https://fontawesome.com/license/free Copyright 2024 Fonticons, Inc.--><rect
     style="fill:#2d2a46;fill-opacity:1;stroke:#656184;stroke-width:15;stroke-dasharray:none;stroke-opacity:1;stop-color:#000000"
     id="rect463"
     width="400"
     height="400"
     x="56"
     y="9.6458702"
     rx="100"
     ry="100"
     inkscape:label="rect463" /><path
     d="m 215.08521,99.786845 c 2.48946,-5.02503 7.60669,-8.15991 13.18494,-8.15991 h 55.5058 c 5.57824,0 10.69547,3.13488 13.18495,8.15991 l 3.31927,6.592465 h 44.25713 c 8.1599,0 14.75237,6.59246 14.75237,14.75237 0,8.15991 -6.59246,14.75238 -14.75237,14.75238 H 167.5088 c -8.15991,0 -14.75238,-6.59247 -14.75238,-14.75238 0,-8.15991 6.59247,-14.75237 14.75238,-14.75237 h 44.25712 z M 167.5088,150.63643 h 177.0285 v 147.52375 c 0,16.27371 -13.23104,29.50475 -29.50475,29.50475 h -118.019 c -16.27371,0 -29.50475,-13.23104 -29.50475,-29.50475 z m 44.25712,29.50475 c -4.0569,0 -7.37618,3.31928 -7.37618,7.3762 v 103.26661 c 0,4.05692 3.31928,7.3762 7.37618,7.3762 4.05691,0 7.37619,-3.31928 7.37619,-7.3762 V 187.51738 c 0,-4.05692 -3.31928,-7.3762 -7.37619,-7.3762 z m 44.25713,0 c -4.0569,0 -7.37619,3.31928 -7.37619,7.3762 v 103.26661 c 0,4.05692 3.31929,7.3762 7.37619,7.3762 4.05691,0 7.37619,-3.31928 7.37619,-7.3762 V 187.51738 c 0,-4.05692 -3.31928,-7.3762 -7.37619,-7.3762 z m 44.25712,0 c -4.0569,0 -7.37618,3.31928 -7.37618,7.3762 v 103.26661 c 0,4.05692 3.31928,7.3762 7.37618,7.3762 4.05691,0 7.3762,-3.31928 7.3762,-7.3762 V 187.51738 c 0,-4.05692 -3.31929,-7.3762 -7.3762,-7.3762 z"
     id="path1-7"
     style="stroke-width:0.461012;fill:#ff8080;fill-opacity:1" /></svg>
