<?xml version="1.0" encoding="UTF-8" standalone="no"?>
<svg
   viewBox="0 0 512 512"
   version="1.1"
   id="svg888"
   sodipodi:docname="studio_dbs.svg"
   width="512"
   height="512"
   inkscape:version="1.2.2 (b0a84865, 2022-12-01)"
   xmlns:inkscape="http://www.inkscape.org/namespaces/inkscape"
   xmlns:sodipodi="http://sodipodi.sourceforge.net/DTD/sodipodi-0.dtd"
   xmlns="http://www.w3.org/2000/svg"
   xmlns:svg="http://www.w3.org/2000/svg">
  <defs
     id="defs892" />
  <sodipodi:namedview
     id="namedview890"
     pagecolor="#ffffff"
     bordercolor="#000000"
     borderopacity="0.25"
     inkscape:showpageshadow="2"
     inkscape:pageopacity="0.0"
     inkscape:pagecheckerboard="0"
     inkscape:deskcolor="#d1d1d1"
     showgrid="false"
     inkscape:zoom="0.4609375"
     inkscape:cx="-188.74576"
     inkscape:cy="370.98305"
     inkscape:window-width="1309"
     inkscape:window-height="437"
     inkscape:window-x="0"
     inkscape:window-y="567"
     inkscape:window-maximized="0"
     inkscape:current-layer="svg888" />
  <rect
     style="fill:#2d2a46;fill-opacity:1;stroke:#656184;stroke-width:15;stroke-dasharray:none;stroke-opacity:1;stop-color:#000000"
     id="rect463"
     width="400"
     height="400"
     x="56"
     y="10.711861"
     rx="100"
     ry="100"
     inkscape:label="rect463" />
  <!--!Font Awesome Free 6.5.2 by @fontawesome - https://fontawesome.com License - https://fontawesome.com/license/free Copyright 2024 Fonticons, Inc.-->
  <path
     d="m 366.88,123.59186 v 23.76 c 0,21.879 -49.6485,39.6 -110.88,39.6 -61.2315,0 -110.88,-17.721 -110.88,-39.6 v -23.76 c 0,-21.879 49.6485,-39.599997 110.88,-39.599997 61.2315,0 110.88,17.720997 110.88,39.599997 z m -27.126,66.6765 c 10.296,-3.663 19.7505,-8.3655 27.126,-14.157 v 50.4405 c 0,21.879 -49.6485,39.6 -110.88,39.6 -61.2315,0 -110.88,-17.721 -110.88,-39.6 v -50.4405 c 7.3755,5.841 16.83,10.494 27.126,14.157 22.2255,7.92 51.8265,12.5235 83.754,12.5235 31.9275,0 61.5285,-4.6035 83.754,-12.5235 z m -194.634,65.043 c 7.3755,5.841 16.83,10.494 27.126,14.157 22.2255,7.92 51.8265,12.5235 83.754,12.5235 31.9275,0 61.5285,-4.6035 83.754,-12.5235 10.296,-3.663 19.7505,-8.3655 27.126,-14.157 v 42.5205 c 0,21.879 -49.6485,39.6 -110.88,39.6 -61.2315,0 -110.88,-17.721 -110.88,-39.6 z"
     id="path886"
     style="fill:#f9f9f9;stroke-width:0.495" />
</svg>
