<?xml version="1.0" standalone="no"?>
<?xml-stylesheet href="light.css" type="text/css"?>
<!DOCTYPE svg PUBLIC "-//W3C//DTD SVG 1.1//EN" "http://www.w3.org/Graphics/SVG/1.1/DTD/svg11.dtd">
<svg xmlns="http://www.w3.org/2000/svg" class="railroad-diagram" width="588" height="86" viewBox="0 0 588 86"><g transform="translate(.5 .5)"><path d="M 20 45 v 20 m 0 -10 h 20.5"></path><g><path d="M40 55h0"></path><path d="M548 55h0"></path><path d="M40 55h20"></path><g><path d="M60 55h0"></path><path d="M528 55h0"></path><g><path d="M60 55h0"></path><path d="M282 55h0"></path><path d="M60 55a10 10 0 0 0 10 -10v-15a10 10 0 0 1 10 -10"></path><g><path d="M80 20h182"></path></g><path d="M262 20a10 10 0 0 1 10 10v15a10 10 0 0 0 10 10"></path><path d="M60 55h20"></path><g><path d="M80 55h0"></path><path d="M262 55h0"></path><path d="M80 55h20"></path><g><path d="M100 55h0"></path><path d="M242 55h0"></path><g class="terminal"><path d="M100 55h0"></path><path d="M242 55h0"></path><rect x="100" y="44" width="142" height="22" rx="0" ry="0"></rect><text x="171" y="59">ANNOTATION_KEY</text></g></g><path d="M242 55h20"></path></g><path d="M262 55h20"></path></g><g><path d="M282 55h0"></path><path d="M528 55h0"></path><path d="M282 55a10 10 0 0 0 10 -10v-15a10 10 0 0 1 10 -10"></path><g><path d="M302 20h206"></path></g><path d="M508 20a10 10 0 0 1 10 10v15a10 10 0 0 0 10 10"></path><path d="M282 55h20"></path><g><path d="M302 55h0"></path><path d="M508 55h0"></path><path d="M302 55h20"></path><g><path d="M322 55h0"></path><path d="M488 55h0"></path><g class="terminal"><path d="M322 55h0"></path><path d="M488 55h0"></path><rect x="322" y="44" width="166" height="22" rx="0" ry="0"></rect><text x="405" y="59">ANNOTATION_UNIQUE</text></g></g><path d="M488 55h20"></path></g><path d="M508 55h20"></path></g></g><path d="M528 55h20"></path></g><path d="M 548 55 h 20 m 0 -10 v 20"></path></g></svg>