<?xml version="1.0" standalone="no"?>
<?xml-stylesheet href="light.css" type="text/css"?>
<!DOCTYPE svg PUBLIC "-//W3C//DTD SVG 1.1//EN" "http://www.w3.org/Graphics/SVG/1.1/DTD/svg11.dtd">
<svg xmlns="http://www.w3.org/2000/svg" class="railroad-diagram" width="1024" height="86" viewBox="0 0 1024 86"><g transform="translate(.5 .5)"><path d="M 20 45 v 20 m 0 -10 h 20.5"></path><g><path d="M40 55h0"></path><path d="M984 55h0"></path><path d="M40 55h20"></path><g><path d="M60 55h0"></path><path d="M964 55h0"></path><g><path d="M60 55h0"></path><path d="M292 55h0"></path><path d="M60 55a10 10 0 0 0 10 -10v-15a10 10 0 0 1 10 -10"></path><g><path d="M80 20h192"></path></g><path d="M272 20a10 10 0 0 1 10 10v15a10 10 0 0 0 10 10"></path><path d="M60 55h20"></path><g><path d="M80 55h0"></path><path d="M272 55h0"></path><path d="M80 55h20"></path><g><path d="M100 55h0"></path><path d="M252 55h0"></path><g class="non-terminal"><path d="M100 55h0"></path><path d="M178 55h0"></path><rect x="100" y="44" width="78" height="22" rx="8" ry="8"></rect><text x="139" y="59">filter</text></g><path d="M178 55h10"></path><path d="M188 55h10"></path><g class="terminal"><path d="M198 55h0"></path><path d="M252 55h0"></path><rect x="198" y="44" width="54" height="22" rx="0" ry="0"></rect><text x="225" y="59">';'</text></g></g><path d="M252 55h20"></path></g><path d="M272 55h20"></path></g><g><path d="M292 55h0"></path><path d="M508 55h0"></path><path d="M292 55a10 10 0 0 0 10 -10v-15a10 10 0 0 1 10 -10"></path><g><path d="M312 20h176"></path></g><path d="M488 20a10 10 0 0 1 10 10v15a10 10 0 0 0 10 10"></path><path d="M292 55h20"></path><g><path d="M312 55h0"></path><path d="M488 55h0"></path><path d="M312 55h20"></path><g><path d="M332 55h0"></path><path d="M468 55h0"></path><g class="non-terminal"><path d="M332 55h0"></path><path d="M394 55h0"></path><rect x="332" y="44" width="62" height="22" rx="8" ry="8"></rect><text x="363" y="59">sort</text></g><path d="M394 55h10"></path><path d="M404 55h10"></path><g class="terminal"><path d="M414 55h0"></path><path d="M468 55h0"></path><rect x="414" y="44" width="54" height="22" rx="0" ry="0"></rect><text x="441" y="59">';'</text></g></g><path d="M468 55h20"></path></g><path d="M488 55h20"></path></g><g><path d="M508 55h0"></path><path d="M740 55h0"></path><path d="M508 55a10 10 0 0 0 10 -10v-15a10 10 0 0 1 10 -10"></path><g><path d="M528 20h192"></path></g><path d="M720 20a10 10 0 0 1 10 10v15a10 10 0 0 0 10 10"></path><path d="M508 55h20"></path><g><path d="M528 55h0"></path><path d="M720 55h0"></path><path d="M528 55h20"></path><g><path d="M548 55h0"></path><path d="M700 55h0"></path><g class="non-terminal"><path d="M548 55h0"></path><path d="M626 55h0"></path><rect x="548" y="44" width="78" height="22" rx="8" ry="8"></rect><text x="587" y="59">offset</text></g><path d="M626 55h10"></path><path d="M636 55h10"></path><g class="terminal"><path d="M646 55h0"></path><path d="M700 55h0"></path><rect x="646" y="44" width="54" height="22" rx="0" ry="0"></rect><text x="673" y="59">';'</text></g></g><path d="M700 55h20"></path></g><path d="M720 55h20"></path></g><g><path d="M740 55h0"></path><path d="M964 55h0"></path><path d="M740 55a10 10 0 0 0 10 -10v-15a10 10 0 0 1 10 -10"></path><g><path d="M760 20h184"></path></g><path d="M944 20a10 10 0 0 1 10 10v15a10 10 0 0 0 10 10"></path><path d="M740 55h20"></path><g><path d="M760 55h0"></path><path d="M944 55h0"></path><path d="M760 55h20"></path><g><path d="M780 55h0"></path><path d="M924 55h0"></path><g class="non-terminal"><path d="M780 55h0"></path><path d="M850 55h0"></path><rect x="780" y="44" width="70" height="22" rx="8" ry="8"></rect><text x="815" y="59">limit</text></g><path d="M850 55h10"></path><path d="M860 55h10"></path><g class="terminal"><path d="M870 55h0"></path><path d="M924 55h0"></path><rect x="870" y="44" width="54" height="22" rx="0" ry="0"></rect><text x="897" y="59">';'</text></g></g><path d="M924 55h20"></path></g><path d="M944 55h20"></path></g></g><path d="M964 55h20"></path></g><path d="M 984 55 h 20 m 0 -10 v 20"></path></g></svg>