<?xml version="1.0" standalone="no"?>
<?xml-stylesheet href="light.css" type="text/css"?>
<!DOCTYPE svg PUBLIC "-//W3C//DTD SVG 1.1//EN" "http://www.w3.org/Graphics/SVG/1.1/DTD/svg11.dtd">
<svg xmlns="http://www.w3.org/2000/svg" class="railroad-diagram" width="456" height="62" viewBox="0 0 456 62"><g transform="translate(.5 .5)"><path d="M 20 21 v 20 m 0 -10 h 20.5"></path><g><path d="M40 31h0"></path><path d="M416 31h0"></path><path d="M40 31h20"></path><g><path d="M60 31h0"></path><path d="M396 31h0"></path><g class="terminal"><path d="M60 31h0"></path><path d="M130 31h0"></path><rect x="60" y="20" width="70" height="22" rx="0" ry="0"></rect><text x="95" y="35">MATCH</text></g><path d="M130 31h10"></path><path d="M140 31h10"></path><g class="non-terminal"><path d="M150 31h0"></path><path d="M244 31h0"></path><rect x="150" y="20" width="94" height="22" rx="8" ry="8"></rect><text x="197" y="35">patterns</text></g><path d="M244 31h10"></path><g><path d="M254 31h0"></path><path d="M396 31h0"></path><path d="M254 31h20"></path><g><path d="M274 31h0"></path><path d="M376 31h0"></path><g class="non-terminal"><path d="M274 31h0"></path><path d="M376 31h0"></path><rect x="274" y="20" width="102" height="22" rx="8" ry="8"></rect><text x="325" y="35">modifiers</text></g></g><path d="M376 31h20"></path></g></g><path d="M396 31h20"></path></g><path d="M 416 31 h 20 m 0 -10 v 20"></path></g></svg>