<?xml version="1.0" standalone="no"?>
<?xml-stylesheet href="light.css" type="text/css"?>
<!DOCTYPE svg PUBLIC "-//W3C//DTD SVG 1.1//EN" "http://www.w3.org/Graphics/SVG/1.1/DTD/svg11.dtd">
<svg xmlns="http://www.w3.org/2000/svg" class="railroad-diagram" width="572" height="108" viewBox="0 0 572 108"><g transform="translate(.5 .5)"><path d="M 20 21 v 20 m 0 -10 h 20.5"></path><g><path d="M40 31h0"></path><path d="M532 31h0"></path><path d="M40 31h20"></path><g><path d="M60 31h0"></path><path d="M512 31h0"></path><g class="terminal"><path d="M60 31h0"></path><path d="M130 31h0"></path><rect x="60" y="20" width="70" height="22" rx="0" ry="0"></rect><text x="95" y="35">MATCH</text></g><path d="M130 31h10"></path><path d="M140 31h10"></path><g class="non-terminal"><path d="M150 31h0"></path><path d="M244 31h0"></path><rect x="150" y="20" width="94" height="22" rx="8" ry="8"></rect><text x="197" y="35">patterns</text></g><path d="M244 31h10"></path><path d="M254 31h10"></path><g class="terminal"><path d="M264 31h0"></path><path d="M342 31h0"></path><rect x="264" y="20" width="78" height="22" rx="0" ry="0"></rect><text x="303" y="35">INSERT</text></g><path d="M342 31h10"></path><path d="M352 31h10"></path><g class="non-terminal"><path d="M362 31h0"></path><path d="M512 31h0"></path><rect x="362" y="20" width="150" height="22" rx="8" ry="8"></rect><text x="437" y="35">variable_things</text></g></g><path d="M512 31h20"></path><path d="M40 31a10 10 0 0 1 10 10v26a10 10 0 0 0 10 10"></path><g><path d="M60 77h102"></path><path d="M410 77h102"></path><g class="terminal"><path d="M162 77h0"></path><path d="M240 77h0"></path><rect x="162" y="66" width="78" height="22" rx="0" ry="0"></rect><text x="201" y="81">INSERT</text></g><path d="M240 77h10"></path><path d="M250 77h10"></path><g class="non-terminal"><path d="M260 77h0"></path><path d="M410 77h0"></path><rect x="260" y="66" width="150" height="22" rx="8" ry="8"></rect><text x="335" y="81">variable_things</text></g></g><path d="M512 77a10 10 0 0 0 10 -10v-26a10 10 0 0 1 10 -10"></path></g><path d="M 532 31 h 20 m 0 -10 v 20"></path></g></svg>