<?xml version="1.0" standalone="no"?>
<?xml-stylesheet href="light.css" type="text/css"?>
<!DOCTYPE svg PUBLIC "-//W3C//DTD SVG 1.1//EN" "http://www.w3.org/Graphics/SVG/1.1/DTD/svg11.dtd">
<svg xmlns="http://www.w3.org/2000/svg" class="railroad-diagram" width="328" height="62" viewBox="0 0 328 62"><g transform="translate(.5 .5)"><path d="M 20 21 v 20 m 0 -10 h 20.5"></path><g><path d="M40 31h0"></path><path d="M288 31h0"></path><path d="M40 31h20"></path><g><path d="M60 31h0"></path><path d="M268 31h0"></path><g class="terminal"><path d="M60 31h0"></path><path d="M138 31h0"></path><rect x="60" y="20" width="78" height="22" rx="0" ry="0"></rect><text x="99" y="35">DEFINE</text></g><path d="M138 31h10"></path><path d="M148 31h10"></path><g class="non-terminal"><path d="M158 31h0"></path><path d="M268 31h0"></path><rect x="158" y="20" width="110" height="22" rx="8" ry="8"></rect><text x="213" y="35">definables</text></g></g><path d="M268 31h20"></path></g><path d="M 288 31 h 20 m 0 -10 v 20"></path></g></svg>