<?xml version="1.0" standalone="no"?>
<?xml-stylesheet href="light.css" type="text/css"?>
<!DOCTYPE svg PUBLIC "-//W3C//DTD SVG 1.1//EN" "http://www.w3.org/Graphics/SVG/1.1/DTD/svg11.dtd">
<svg xmlns="http://www.w3.org/2000/svg" class="railroad-diagram" width="318" height="430" viewBox="0 0 318 430"><g transform="translate(.5 .5)"><path d="M 20 21 v 20 m 0 -10 h 20.5"></path><g><path d="M40 31h0"></path><path d="M278 31h0"></path><path d="M40 31h20"></path><g><path d="M60 31h36"></path><path d="M222 31h36"></path><g class="non-terminal"><path d="M96 31h0"></path><path d="M222 31h0"></path><rect x="96" y="20" width="126" height="22" rx="8" ry="8"></rect><text x="159" y="35">query_define</text></g></g><path d="M258 31h20"></path><path d="M40 31a10 10 0 0 1 10 10v26a10 10 0 0 0 10 10"></path><g><path d="M60 77h28"></path><path d="M230 77h28"></path><g class="non-terminal"><path d="M88 77h0"></path><path d="M230 77h0"></path><rect x="88" y="66" width="142" height="22" rx="8" ry="8"></rect><text x="159" y="81">query_undefine</text></g></g><path d="M258 77a10 10 0 0 0 10 -10v-26a10 10 0 0 1 10 -10"></path><path d="M40 31a10 10 0 0 1 10 10v72a10 10 0 0 0 10 10"></path><g><path d="M60 123h36"></path><path d="M222 123h36"></path><g class="non-terminal"><path d="M96 123h0"></path><path d="M222 123h0"></path><rect x="96" y="112" width="126" height="22" rx="8" ry="8"></rect><text x="159" y="127">query_insert</text></g></g><path d="M258 123a10 10 0 0 0 10 -10v-72a10 10 0 0 1 10 -10"></path><path d="M40 31a10 10 0 0 1 10 10v118a10 10 0 0 0 10 10"></path><g><path d="M60 169h36"></path><path d="M222 169h36"></path><g class="non-terminal"><path d="M96 169h0"></path><path d="M222 169h0"></path><rect x="96" y="158" width="126" height="22" rx="8" ry="8"></rect><text x="159" y="173">query_update</text></g></g><path d="M258 169a10 10 0 0 0 10 -10v-118a10 10 0 0 1 10 -10"></path><path d="M40 31a10 10 0 0 1 10 10v164a10 10 0 0 0 10 10"></path><g><path d="M60 215h36"></path><path d="M222 215h36"></path><g class="non-terminal"><path d="M96 215h0"></path><path d="M222 215h0"></path><rect x="96" y="204" width="126" height="22" rx="8" ry="8"></rect><text x="159" y="219">query_delete</text></g></g><path d="M258 215a10 10 0 0 0 10 -10v-164a10 10 0 0 1 10 -10"></path><path d="M40 31a10 10 0 0 1 10 10v210a10 10 0 0 0 10 10"></path><g><path d="M60 261h40"></path><path d="M218 261h40"></path><g class="non-terminal"><path d="M100 261h0"></path><path d="M218 261h0"></path><rect x="100" y="250" width="118" height="22" rx="8" ry="8"></rect><text x="159" y="265">query_match</text></g></g><path d="M258 261a10 10 0 0 0 10 -10v-210a10 10 0 0 1 10 -10"></path><path d="M40 31a10 10 0 0 1 10 10v256a10 10 0 0 0 10 10"></path><g><path d="M60 307h0"></path><path d="M258 307h0"></path><g class="non-terminal"><path d="M60 307h0"></path><path d="M258 307h0"></path><rect x="60" y="296" width="198" height="22" rx="8" ry="8"></rect><text x="159" y="311">query_match_aggregate</text></g></g><path d="M258 307a10 10 0 0 0 10 -10v-256a10 10 0 0 1 10 -10"></path><path d="M40 31a10 10 0 0 1 10 10v302a10 10 0 0 0 10 10"></path><g><path d="M60 353h16"></path><path d="M242 353h16"></path><g class="non-terminal"><path d="M76 353h0"></path><path d="M242 353h0"></path><rect x="76" y="342" width="166" height="22" rx="8" ry="8"></rect><text x="159" y="357">query_match_group</text></g></g><path d="M258 353a10 10 0 0 0 10 -10v-302a10 10 0 0 1 10 -10"></path><path d="M40 31a10 10 0 0 1 10 10v348a10 10 0 0 0 10 10"></path><g><path d="M60 399h0"></path><path d="M258 399h0"></path><g class="non-terminal"><path d="M60 399h0"></path><path d="M258 399h0"></path><rect x="60" y="388" width="198" height="22" rx="8" ry="8"></rect><text x="159" y="403">query_match_group_agg</text></g></g><path d="M258 399a10 10 0 0 0 10 -10v-348a10 10 0 0 1 10 -10"></path></g><path d="M 278 31 h 20 m 0 -10 v 20"></path></g></svg>