<?xml version="1.0" standalone="no"?>
<?xml-stylesheet href="light.css" type="text/css"?>
<!DOCTYPE svg PUBLIC "-//W3C//DTD SVG 1.1//EN" "http://www.w3.org/Graphics/SVG/1.1/DTD/svg11.dtd">
<svg xmlns="http://www.w3.org/2000/svg" class="railroad-diagram" width="344" height="62" viewBox="0 0 344 62"><g transform="translate(.5 .5)"><path d="M 20 21 v 20 m 0 -10 h 20.5"></path><g><path d="M40 31h0"></path><path d="M304 31h0"></path><path d="M40 31h20"></path><g><path d="M60 31h0"></path><path d="M284 31h0"></path><g class="terminal"><path d="M60 31h0"></path><path d="M154 31h0"></path><rect x="60" y="20" width="94" height="22" rx="0" ry="0"></rect><text x="107" y="35">UNDEFINE</text></g><path d="M154 31h10"></path><path d="M164 31h10"></path><g class="non-terminal"><path d="M174 31h0"></path><path d="M284 31h0"></path><rect x="174" y="20" width="110" height="22" rx="8" ry="8"></rect><text x="229" y="35">definables</text></g></g><path d="M284 31h20"></path></g><path d="M 304 31 h 20 m 0 -10 v 20"></path></g></svg>