<?xml version="1.0" standalone="no"?>
<?xml-stylesheet href="light.css" type="text/css"?>
<!DOCTYPE svg PUBLIC "-//W3C//DTD SVG 1.1//EN" "http://www.w3.org/Graphics/SVG/1.1/DTD/svg11.dtd">
<svg xmlns="http://www.w3.org/2000/svg" class="railroad-diagram" width="650" height="456" viewBox="0 0 650 456"><g transform="translate(.5 .5)"><path d="M 20 21 v 20 m 0 -10 h 20.5"></path><g><path d="M40 31h0"></path><path d="M610 31h0"></path><path d="M40 31h20"></path><g><path d="M60 31h218"></path><path d="M372 31h218"></path><g class="terminal"><path d="M278 31h0"></path><path d="M372 31h0"></path><rect x="278" y="20" width="94" height="22" rx="0" ry="0"></rect><text x="325" y="35">ABSTRACT</text></g></g><path d="M590 31h20"></path><path d="M40 31a10 10 0 0 1 10 10v26a10 10 0 0 0 10 10"></path><g><path d="M60 77h177"></path><path d="M413 77h177"></path><g class="terminal"><path d="M237 77h0"></path><path d="M299 77h0"></path><rect x="237" y="66" width="62" height="22" rx="0" ry="0"></rect><text x="268" y="81">SUB_</text></g><path d="M299 77h10"></path><path d="M309 77h10"></path><g class="non-terminal"><path d="M319 77h0"></path><path d="M413 77h0"></path><rect x="319" y="66" width="94" height="22" rx="8" ry="8"></rect><text x="366" y="81">type_any</text></g></g><path d="M590 77a10 10 0 0 0 10 -10v-26a10 10 0 0 1 10 -10"></path><path d="M40 31a10 10 0 0 1 10 10v96a10 10 0 0 0 10 10"></path><g><path d="M60 147h0"></path><path d="M590 147h0"></path><g class="terminal"><path d="M60 147h0"></path><path d="M122 147h0"></path><rect x="60" y="136" width="62" height="22" rx="0" ry="0"></rect><text x="91" y="151">OWNS</text></g><path d="M122 147h10"></path><path d="M132 147h10"></path><g class="non-terminal"><path d="M142 147h0"></path><path d="M204 147h0"></path><rect x="142" y="136" width="62" height="22" rx="8" ry="8"></rect><text x="173" y="151">type</text></g><path d="M204 147h10"></path><g><path d="M214 147h0"></path><path d="M422 147h0"></path><path d="M214 147a10 10 0 0 0 10 -10v-15a10 10 0 0 1 10 -10"></path><g><path d="M234 112h168"></path></g><path d="M402 112a10 10 0 0 1 10 10v15a10 10 0 0 0 10 10"></path><path d="M214 147h20"></path><g><path d="M234 147h0"></path><path d="M402 147h0"></path><path d="M234 147h20"></path><g><path d="M254 147h0"></path><path d="M382 147h0"></path><g class="terminal"><path d="M254 147h0"></path><path d="M300 147h0"></path><rect x="254" y="136" width="46" height="22" rx="0" ry="0"></rect><text x="277" y="151">AS</text></g><path d="M300 147h10"></path><path d="M310 147h10"></path><g class="non-terminal"><path d="M320 147h0"></path><path d="M382 147h0"></path><rect x="320" y="136" width="62" height="22" rx="8" ry="8"></rect><text x="351" y="151">type</text></g></g><path d="M382 147h20"></path></g><path d="M402 147h20"></path></g><path d="M422 147h10"></path><g class="non-terminal"><path d="M432 147h0"></path><path d="M590 147h0"></path><rect x="432" y="136" width="158" height="22" rx="8" ry="8"></rect><text x="511" y="151">annotations_owns</text></g></g><path d="M590 147a10 10 0 0 0 10 -10v-96a10 10 0 0 1 10 -10"></path><path d="M40 31a10 10 0 0 1 10 10v166a10 10 0 0 0 10 10"></path><g><path d="M60 217h72"></path><path d="M518 217h72"></path><g class="terminal"><path d="M132 217h0"></path><path d="M218 217h0"></path><rect x="132" y="206" width="86" height="22" rx="0" ry="0"></rect><text x="175" y="221">RELATES</text></g><path d="M218 217h10"></path><path d="M228 217h10"></path><g class="non-terminal"><path d="M238 217h0"></path><path d="M300 217h0"></path><rect x="238" y="206" width="62" height="22" rx="8" ry="8"></rect><text x="269" y="221">type</text></g><path d="M300 217h10"></path><g><path d="M310 217h0"></path><path d="M518 217h0"></path><path d="M310 217a10 10 0 0 0 10 -10v-15a10 10 0 0 1 10 -10"></path><g><path d="M330 182h168"></path></g><path d="M498 182a10 10 0 0 1 10 10v15a10 10 0 0 0 10 10"></path><path d="M310 217h20"></path><g><path d="M330 217h0"></path><path d="M498 217h0"></path><path d="M330 217h20"></path><g><path d="M350 217h0"></path><path d="M478 217h0"></path><g class="terminal"><path d="M350 217h0"></path><path d="M396 217h0"></path><rect x="350" y="206" width="46" height="22" rx="0" ry="0"></rect><text x="373" y="221">AS</text></g><path d="M396 217h10"></path><path d="M406 217h10"></path><g class="non-terminal"><path d="M416 217h0"></path><path d="M478 217h0"></path><rect x="416" y="206" width="62" height="22" rx="8" ry="8"></rect><text x="447" y="221">type</text></g></g><path d="M478 217h20"></path></g><path d="M498 217h20"></path></g></g><path d="M590 217a10 10 0 0 0 10 -10v-166a10 10 0 0 1 10 -10"></path><path d="M40 31a10 10 0 0 1 10 10v236a10 10 0 0 0 10 10"></path><g><path d="M60 287h52"></path><path d="M538 287h52"></path><g class="terminal"><path d="M112 287h0"></path><path d="M182 287h0"></path><rect x="112" y="276" width="70" height="22" rx="0" ry="0"></rect><text x="147" y="291">PLAYS</text></g><path d="M182 287h10"></path><path d="M192 287h10"></path><g class="non-terminal"><path d="M202 287h0"></path><path d="M320 287h0"></path><rect x="202" y="276" width="118" height="22" rx="8" ry="8"></rect><text x="261" y="291">type_scoped</text></g><path d="M320 287h10"></path><g><path d="M330 287h0"></path><path d="M538 287h0"></path><path d="M330 287a10 10 0 0 0 10 -10v-15a10 10 0 0 1 10 -10"></path><g><path d="M350 252h168"></path></g><path d="M518 252a10 10 0 0 1 10 10v15a10 10 0 0 0 10 10"></path><path d="M330 287h20"></path><g><path d="M350 287h0"></path><path d="M518 287h0"></path><path d="M350 287h20"></path><g><path d="M370 287h0"></path><path d="M498 287h0"></path><g class="terminal"><path d="M370 287h0"></path><path d="M416 287h0"></path><rect x="370" y="276" width="46" height="22" rx="0" ry="0"></rect><text x="393" y="291">AS</text></g><path d="M416 287h10"></path><path d="M426 287h10"></path><g class="non-terminal"><path d="M436 287h0"></path><path d="M498 287h0"></path><rect x="436" y="276" width="62" height="22" rx="8" ry="8"></rect><text x="467" y="291">type</text></g></g><path d="M498 287h20"></path></g><path d="M518 287h20"></path></g></g><path d="M590 287a10 10 0 0 0 10 -10v-236a10 10 0 0 1 10 -10"></path><path d="M40 31a10 10 0 0 1 10 10v282a10 10 0 0 0 10 10"></path><g><path d="M60 333h165"></path><path d="M425 333h165"></path><g class="terminal"><path d="M225 333h0"></path><path d="M295 333h0"></path><rect x="225" y="322" width="70" height="22" rx="0" ry="0"></rect><text x="260" y="337">VALUE</text></g><path d="M295 333h10"></path><path d="M305 333h10"></path><g class="non-terminal"><path d="M315 333h0"></path><path d="M425 333h0"></path><rect x="315" y="322" width="110" height="22" rx="8" ry="8"></rect><text x="370" y="337">value_type</text></g></g><path d="M590 333a10 10 0 0 0 10 -10v-282a10 10 0 0 1 10 -10"></path><path d="M40 31a10 10 0 0 1 10 10v328a10 10 0 0 0 10 10"></path><g><path d="M60 379h177"></path><path d="M413 379h177"></path><g class="terminal"><path d="M237 379h0"></path><path d="M307 379h0"></path><rect x="237" y="368" width="70" height="22" rx="0" ry="0"></rect><text x="272" y="383">REGEX</text></g><path d="M307 379h10"></path><path d="M317 379h10"></path><g class="terminal"><path d="M327 379h0"></path><path d="M413 379h0"></path><rect x="327" y="368" width="86" height="22" rx="0" ry="0"></rect><text x="370" y="383">STRING_</text></g></g><path d="M590 379a10 10 0 0 0 10 -10v-328a10 10 0 0 1 10 -10"></path><path d="M40 31a10 10 0 0 1 10 10v374a10 10 0 0 0 10 10"></path><g><path d="M60 425h173"></path><path d="M417 425h173"></path><g class="terminal"><path d="M233 425h0"></path><path d="M295 425h0"></path><rect x="233" y="414" width="62" height="22" rx="0" ry="0"></rect><text x="264" y="429">TYPE</text></g><path d="M295 425h10"></path><path d="M305 425h10"></path><g class="non-terminal"><path d="M315 425h0"></path><path d="M417 425h0"></path><rect x="315" y="414" width="102" height="22" rx="8" ry="8"></rect><text x="366" y="429">label_any</text></g></g><path d="M590 425a10 10 0 0 0 10 -10v-374a10 10 0 0 1 10 -10"></path></g><path d="M 610 31 h 20 m 0 -10 v 20"></path></g></svg>