<svg width="24" height="24" viewBox="0 0 24 24" fill="none" xmlns="http://www.w3.org/2000/svg">
<path fill-rule="evenodd" clip-rule="evenodd" d="M2.59233 0C1.16063 0 0 1.16063 0 2.59233V21.4077C0 22.8394 1.16063 24 2.59233 24H21.4077C22.8394 24 24 22.8394 24 21.4077V2.59233C24 1.16063 22.8394 0 21.4077 0H2.59233ZM12.864 3.30169L19.3851 6.96684C19.8842 7.24668 20.1943 7.77157 20.1943 8.33428V15.6646C20.1943 16.2273 19.8842 16.7522 19.3851 17.032L12.864 20.6972C12.616 20.8363 12.3391 20.9059 12.0623 20.9059C11.7855 20.9059 11.5087 20.8363 11.2606 20.6972L4.73958 17.032C4.24041 16.7522 3.93031 16.2273 3.93031 15.6646V8.33428C3.93031 7.77157 4.24041 7.24668 4.73958 6.96684L11.2606 3.30169C11.7553 3.02487 12.3694 3.02487 12.864 3.30169ZM7.41546 11.9994C7.41546 14.5619 9.4999 16.6463 12.0623 16.6463C13.5266 16.6463 14.8789 15.9671 15.7577 14.8099L14.0605 13.8282C13.5508 14.3864 12.8262 14.7101 12.0623 14.7101C10.5678 14.7101 9.35166 13.4939 9.35166 11.9994C9.35166 10.5049 10.5678 9.28876 12.0623 9.28876C12.8262 9.28876 13.5508 9.61247 14.0605 10.1706L15.7577 9.18893C14.8789 8.03175 13.5266 7.35257 12.0623 7.35257C9.4999 7.35257 7.41546 9.437 7.41546 11.9994ZM15.9347 12.3867H16.7092V11.6122H15.9347V10.8377H15.1602V11.6122H14.3858V12.3867H15.1602V13.1611H15.9347V12.3867ZM18.6454 12.3867H19.4199V11.6122H18.6454V10.8377H17.8709V11.6122H17.0964V12.3867H17.8709V13.1611H18.6454V12.3867Z" fill="white"/>
</svg>
