<svg xmlns="http://www.w3.org/2000/svg" fill="none" viewBox="0 0 24 24" height="24" width="24">
<path fill="white" d="M2.59233 0C1.16063 0 0 1.16063 0 2.59233V21.4077C0 22.8394 1.16063 24 2.59233 24H21.4077C22.8394 24 24 22.8394 24 21.4077V2.59233C24 1.16063 22.8394 0 21.4077 0H2.59233ZM9.14703 19.4092L11.3014 20.6888L11.3037 20.6901C11.5298 20.8118 11.7763 20.8828 12.0418 20.8828C12.2847 20.8828 12.5453 20.831 12.7732 20.7258L12.7783 20.7234L19.2447 16.9797C19.704 16.7147 19.9861 16.2207 19.9861 15.6916V8.2259C19.9861 7.69685 19.704 7.2028 19.2447 6.93782L12.7825 3.1965L12.7817 3.19608C12.3397 2.94858 11.7439 2.94858 11.3019 3.19608L11.3012 3.1965L4.83888 6.93782L4.83879 6.93787C4.37955 7.20287 4.09756 7.69688 4.09756 8.2259V15.6916C4.09756 16.2207 4.37958 16.7147 4.83888 16.9797L4.83932 16.98L6.54312 17.9536L6.5466 17.9553C6.96405 18.1599 7.25286 18.2655 7.48831 18.319C7.72437 18.3726 7.90181 18.3726 8.08768 18.3726H8.09031C8.72306 18.3726 9.23614 18.1779 9.59026 17.8018C9.94338 17.4267 10.1235 16.8871 10.1235 16.2261V8.85749C10.1235 8.67014 9.96494 8.54094 9.80695 8.54094H8.98102C8.79367 8.54094 8.66446 8.6995 8.66446 8.85749V16.2261C8.66446 16.4677 8.53642 16.7092 8.30761 16.8382C8.08285 16.965 7.7396 16.994 7.29027 16.7664L5.52473 15.7459L5.52143 15.7443C5.51846 15.7428 5.51083 15.7373 5.50321 15.722C5.49556 15.7067 5.49182 15.689 5.49182 15.6755V8.2097C5.49182 8.19617 5.49556 8.17845 5.50321 8.16315C5.51083 8.1479 5.51846 8.14236 5.52143 8.14088L5.52467 8.13926L11.9929 4.41068L11.9962 4.40848C11.9962 4.40848 11.9962 4.40853 11.9963 4.40846C11.9974 4.40796 12.0047 4.40471 12.0195 4.40471C12.0347 4.40471 12.0513 4.40824 12.0655 4.41485L18.5266 8.13926L18.5298 8.14088C18.5428 8.1474 18.5594 8.16222 18.5594 8.2097V15.6755C18.5594 15.7229 18.5428 15.7378 18.5298 15.7443L18.5265 15.7459L12.0582 19.4907L12.055 19.4929C12.0558 19.4924 12.0488 19.4966 12.0317 19.4966C12.0168 19.4966 12.0005 19.4932 11.9864 19.4868L10.3416 18.5031C10.2775 18.4614 10.1586 18.4175 10.051 18.4861C9.82604 18.6146 9.69778 18.6843 9.57293 18.74C9.44764 18.7959 9.32361 18.8387 9.10431 18.9118C9.07975 18.92 9.04148 18.9332 9.00652 18.9529C8.97567 18.9703 8.91977 19.0078 8.89994 19.0772C8.87718 19.1568 8.91466 19.2254 8.95701 19.2718C8.99899 19.3178 9.06275 19.3627 9.14703 19.4092ZM13.6976 12.6229L13.6978 12.6229C14.7596 12.7283 15.3089 12.8567 15.5916 13.0009C15.729 13.0709 15.7935 13.1399 15.8268 13.2029C15.8611 13.2677 15.8711 13.3417 15.8711 13.4406C15.8711 13.6064 15.838 13.74 15.7751 13.8488C15.7125 13.9572 15.6155 14.0491 15.4744 14.1242C15.1864 14.2774 14.7262 14.3548 14.05 14.3548C13.195 14.3548 12.7044 14.2486 12.4125 14.057C12.1335 13.8739 12.0164 13.5988 11.9533 13.1873C11.9476 13.0142 11.7991 12.9135 11.6531 12.9135H10.811C10.6237 12.9135 10.4945 13.0721 10.4945 13.2301C10.4945 13.8016 10.6462 14.4389 11.1795 14.9312C11.7109 15.4217 12.6005 15.7491 14.0338 15.7491C15.0755 15.7491 15.9091 15.5444 16.4879 15.1444C17.0725 14.7403 17.3864 14.1439 17.3949 13.3934L17.3949 13.3927V13.392C17.3949 13.0304 17.334 12.7257 17.2038 12.4693C17.0731 12.2117 16.8766 12.0107 16.6184 11.8508C16.1094 11.5356 15.3515 11.3758 14.3572 11.2465L14.3571 11.2465C13.3483 11.1163 12.8117 11.0165 12.5264 10.8967C12.3874 10.8383 12.3241 10.7814 12.2914 10.7278C12.2581 10.6732 12.245 10.6037 12.245 10.4932C12.245 10.3195 12.2834 10.1369 12.4728 9.9907C12.6714 9.8374 13.055 9.70847 13.7908 9.70847C14.4512 9.70847 14.8805 9.78206 15.1665 9.94891C15.4425 10.1099 15.6027 10.3688 15.6956 10.7936C15.7239 10.932 15.8554 11.0364 15.9933 11.0364H16.8354C16.9328 11.0364 17.0111 10.9762 17.0514 10.9359L17.06 10.9273L17.0667 10.9172C17.1097 10.8527 17.1358 10.7809 17.1358 10.7037V10.6986L17.1354 10.6935C17.0683 9.88898 16.7679 9.28498 16.2012 8.88703C15.6409 8.49353 14.8379 8.31421 13.7908 8.31421C12.8529 8.31421 12.0881 8.51134 11.5542 8.88932C11.0153 9.27087 10.7212 9.83059 10.7212 10.5255C10.7212 10.8939 10.7933 11.2036 10.936 11.4626C11.079 11.722 11.2887 11.923 11.5521 12.08C12.0733 12.3906 12.8142 12.5337 13.6976 12.6229Z" clip-rule="evenodd" fill-rule="evenodd"></path>
</svg>
