<svg xmlns="http://www.w3.org/2000/svg" fill="none" viewBox="0 0 24 24" height="24" width="24">
<path fill="white" d="M0 2.59233C0 1.16063 1.16063 0 2.59233 0H21.4077C22.8394 0 24 1.16063 24 2.59233V21.4077C24 22.8394 22.8394 24 21.4077 24H2.59233C1.16063 24 0 22.8394 0 21.4077V2.59233ZM12.0274 4.18118C8.05742 4.18118 8.30518 5.90279 8.30518 5.90279L8.31007 7.68646H12.0983V8.22156H6.80446C6.80446 8.22156 4.26481 7.93324 4.26481 11.9394C4.26481 15.9446 6.48193 15.8029 6.48193 15.8029H7.80527V13.944C7.80527 13.944 7.73392 11.7268 9.9872 11.7268H13.7441C13.7441 11.7268 15.8552 11.761 15.8552 9.68661V6.25659C15.8552 6.25659 16.1758 4.18118 12.0274 4.18118ZM9.93834 5.3804C10.3151 5.3804 10.62 5.68533 10.62 6.0621C10.62 6.43887 10.3151 6.7438 9.93834 6.7438C9.84878 6.74393 9.76008 6.72639 9.67731 6.69217C9.59454 6.65796 9.51934 6.60775 9.45601 6.54442C9.39269 6.4811 9.34248 6.40589 9.30826 6.32313C9.27405 6.24036 9.25651 6.15166 9.25663 6.0621C9.25663 5.68533 9.56157 5.3804 9.93834 5.3804ZM15.862 18.0156C15.862 18.0156 16.1098 19.7372 12.1398 19.7372C7.99142 19.7372 8.31199 17.6618 8.31199 17.6618V14.2318C8.31199 12.1574 10.4231 12.1916 10.4231 12.1916H14.18C16.4333 12.1916 16.362 9.97444 16.362 9.97444V8.11601H17.6853C17.6853 8.11601 19.9024 7.9738 19.9024 11.9795C19.9024 15.9852 17.3623 15.6968 17.3623 15.6968H12.0689V16.2319H15.8572L15.862 18.0156ZM13.9679 18.4864C14.0506 18.5206 14.1393 18.5381 14.2289 18.538C14.6057 18.538 14.9106 18.2336 14.9106 17.8563C14.9106 17.4795 14.6057 17.1751 14.2289 17.1751C13.8521 17.1751 13.5472 17.48 13.5472 17.8563C13.5471 17.9459 13.5646 18.0346 13.5988 18.1173C13.633 18.2001 13.6832 18.2753 13.7466 18.3386C13.8099 18.402 13.8851 18.4522 13.9679 18.4864Z" clip-rule="evenodd" fill-rule="evenodd"></path>
</svg>
