<?xml version="1.0" encoding="UTF-8" standalone="no"?>
<svg
   viewBox="0 0 512 512"
   version="1.1"
   id="svg134"
   sodipodi:docname="rotate-left-solid.svg"
   inkscape:version="1.2.2 (b0a84865, 2022-12-01)"
   xmlns:inkscape="http://www.inkscape.org/namespaces/inkscape"
   xmlns:sodipodi="http://sodipodi.sourceforge.net/DTD/sodipodi-0.dtd"
   xmlns="http://www.w3.org/2000/svg"
   xmlns:svg="http://www.w3.org/2000/svg">
  <defs
     id="defs138" />
  <sodipodi:namedview
     id="namedview136"
     pagecolor="#ffffff"
     bordercolor="#000000"
     borderopacity="0.25"
     inkscape:showpageshadow="2"
     inkscape:pageopacity="0.0"
     inkscape:pagecheckerboard="0"
     inkscape:deskcolor="#d1d1d1"
     showgrid="false"
     inkscape:zoom="0.65186406"
     inkscape:cx="392.71992"
     inkscape:cy="513.91083"
     inkscape:window-width="1309"
     inkscape:window-height="411"
     inkscape:window-x="2328"
     inkscape:window-y="848"
     inkscape:window-maximized="0"
     inkscape:current-layer="svg134" />
  <!--!Font Awesome Free 6.5.2 by @fontawesome - https://fontawesome.com License - https://fontawesome.com/license/free Copyright 2024 Fonticons, Inc.-->
  <path
     d="M48.5 224H40c-13.3 0-24-10.7-24-24V72c0-9.7 5.8-18.5 14.8-22.2s19.3-1.7 26.2 5.2L98.6 96.6c87.6-86.5 228.7-86.2 315.8 1c87.5 87.5 87.5 229.3 0 316.8s-229.3 87.5-316.8 0c-12.5-12.5-12.5-32.8 0-45.3s32.8-12.5 45.3 0c62.5 62.5 163.8 62.5 226.3 0s62.5-163.8 0-226.3c-62.2-62.2-162.7-62.5-225.3-1L185 183c6.9 6.9 8.9 17.2 5.2 26.2s-12.5 14.8-22.2 14.8H48.5z"
     id="path132" />
</svg>
