<?xml version="1.0" encoding="UTF-8" standalone="no"?>
<svg
   viewBox="0 0 512 512"
   version="1.1"
   id="svg1049"
   sodipodi:docname="studio_projects.svg"
   inkscape:version="1.2.2 (b0a84865, 2022-12-01)"
   width="512"
   height="512"
   xmlns:inkscape="http://www.inkscape.org/namespaces/inkscape"
   xmlns:sodipodi="http://sodipodi.sourceforge.net/DTD/sodipodi-0.dtd"
   xmlns="http://www.w3.org/2000/svg"
   xmlns:svg="http://www.w3.org/2000/svg">
  <defs
     id="defs1053" />
  <sodipodi:namedview
     id="namedview1051"
     pagecolor="#ffffff"
     bordercolor="#000000"
     borderopacity="0.25"
     inkscape:showpageshadow="2"
     inkscape:pageopacity="0.0"
     inkscape:pagecheckerboard="0"
     inkscape:deskcolor="#d1d1d1"
     showgrid="false"
     inkscape:zoom="0.4609375"
     inkscape:cx="-258.16949"
     inkscape:cy="234.30508"
     inkscape:window-width="1309"
     inkscape:window-height="437"
     inkscape:window-x="491"
     inkscape:window-y="567"
     inkscape:window-maximized="0"
     inkscape:current-layer="svg1049" />
  <rect
     style="fill:#2d2a46;fill-opacity:1;stroke:#656184;stroke-width:15;stroke-dasharray:none;stroke-opacity:1;stop-color:#000000"
     id="rect463"
     width="400"
     height="400"
     x="56"
     y="10"
     rx="100"
     ry="100"
     inkscape:label="rect463" />
  <!--!Font Awesome Free 6.5.2 by @fontawesome - https://fontawesome.com License - https://fontawesome.com/license/free Copyright 2024 Fonticons, Inc.-->
  <path
     d="m 157.35576,194.061 -43.9065,75.24 V 130.8 c 0,-17.4735 14.2065,-31.68 31.68,-31.68 h 58.1625 c 8.415,0 16.4835,3.3165 22.4235,9.2565 l 13.1175,13.1175 c 5.94,5.94 14.0085,9.2565 22.4235,9.2565 h 58.113 c 17.4735,0 31.68,14.2065 31.68,31.68 v 15.84 h -166.32 c -11.286,0 -21.681,5.9895 -27.3735,15.741 z m 13.662,7.9695 c 2.871,-4.9005 8.0685,-7.8705 13.7115,-7.8705 h 198 c 5.6925,0 10.89,3.0195 13.7115,7.9695 2.8215,4.95 2.8215,10.989 -0.0495,15.8895 l -55.44,95.04 c -2.8215,4.851 -8.019,7.821 -13.662,7.821 h -198 c -5.6925,0 -10.89,-3.0195 -13.7115,-7.9695 -2.8215,-4.95 -2.8215,-10.989 0.0495,-15.8895 l 55.44,-95.04 z"
     id="path1047"
     style="fill:#f9f9f9;stroke-width:0.495" />
</svg>
