<?xml version="1.0" encoding="UTF-8" standalone="no"?>
<svg
   viewBox="0 0 512 512"
   version="1.1"
   id="svg1202"
   sodipodi:docname="studio_save.svg"
   inkscape:version="1.2.2 (b0a84865, 2022-12-01)"
   width="512"
   height="512"
   xmlns:inkscape="http://www.inkscape.org/namespaces/inkscape"
   xmlns:sodipodi="http://sodipodi.sourceforge.net/DTD/sodipodi-0.dtd"
   xmlns="http://www.w3.org/2000/svg"
   xmlns:svg="http://www.w3.org/2000/svg">
  <defs
     id="defs1206" />
  <sodipodi:namedview
     id="namedview1204"
     pagecolor="#ffffff"
     bordercolor="#000000"
     borderopacity="0.25"
     inkscape:showpageshadow="2"
     inkscape:pageopacity="0.0"
     inkscape:pagecheckerboard="0"
     inkscape:deskcolor="#d1d1d1"
     showgrid="false"
     inkscape:zoom="0.4609375"
     inkscape:cx="-190.91525"
     inkscape:cy="256"
     inkscape:window-width="1309"
     inkscape:window-height="411"
     inkscape:window-x="2175"
     inkscape:window-y="553"
     inkscape:window-maximized="0"
     inkscape:current-layer="svg1202" />
  <!--!Font Awesome Free 6.5.2 by @fontawesome - https://fontawesome.com License - https://fontawesome.com/license/free Copyright 2024 Fonticons, Inc.-->
  <path
     d="m 136,54.508475 c -26.475,0 -48,21.525 -48,47.999995 v 240 c 0,26.475 21.525,48 48,48 h 240 c 26.475,0 48,-21.525 48,-48 v -182.025 c 0,-12.75 -5.025,-24.975 -14.025,-33.975 L 352,68.533475 c -9,-9 -21.225,-14.025 -33.975,-14.025 z m 0,71.999995 c 0,-13.275 10.725,-24 24,-24 h 144 c 13.275,0 24,10.725 24,24 v 48 c 0,13.275 -10.725,24 -24,24 H 160 c -13.275,0 -24,-10.725 -24,-24 z m 120,120 a 48,48 0 1 1 0,96 48,48 0 1 1 0,-96 z"
     id="path1200"
     style="fill:#f9f9f9;stroke-width:0.75" />
</svg>
