<?xml version="1.0" encoding="UTF-8" standalone="no"?>
<svg
   viewBox="0 0 512 512"
   version="1.1"
   id="svg1355"
   sodipodi:docname="studio_stop.svg"
   width="512"
   height="512"
   inkscape:version="1.2.2 (b0a84865, 2022-12-01)"
   xmlns:inkscape="http://www.inkscape.org/namespaces/inkscape"
   xmlns:sodipodi="http://sodipodi.sourceforge.net/DTD/sodipodi-0.dtd"
   xmlns="http://www.w3.org/2000/svg"
   xmlns:svg="http://www.w3.org/2000/svg">
  <defs
     id="defs1359" />
  <sodipodi:namedview
     id="namedview1357"
     pagecolor="#ffffff"
     bordercolor="#000000"
     borderopacity="0.25"
     inkscape:showpageshadow="2"
     inkscape:pageopacity="0.0"
     inkscape:pagecheckerboard="0"
     inkscape:deskcolor="#d1d1d1"
     showgrid="false"
     inkscape:zoom="0.4609375"
     inkscape:cx="-190.91525"
     inkscape:cy="256"
     inkscape:window-width="1309"
     inkscape:window-height="411"
     inkscape:window-x="2347"
     inkscape:window-y="804"
     inkscape:window-maximized="0"
     inkscape:current-layer="svg1355" />
  <!--!Font Awesome Free 6.5.2 by @fontawesome - https://fontawesome.com License - https://fontawesome.com/license/free Copyright 2024 Fonticons, Inc.-->
  <path
     d="m 350.05,65.985583 c 4.425,-10.275 1.125,-22.275 -7.95,-28.875 -9.075,-6.6 -21.45,-6 -29.925,1.35 l -192,167.999997 c -7.5,6.6 -10.2,17.175 -6.675,26.475 3.525,9.3 12.525,15.6 22.5,15.6 h 83.625 l -57.675,134.55 c -4.425,10.275 -1.125,22.275 7.95,28.875 9.075,6.6 21.45,6 29.925,-1.35 l 192,-168 c 7.5,-6.6 10.2,-17.175 6.675,-26.475 -3.525,-9.3 -12.45,-15.525 -22.5,-15.525 h -83.625 z"
     id="path1353"
     style="fill:#f9f9f9;stroke-width:0.75" />
</svg>
