<?xml version="1.0" encoding="UTF-8" standalone="no"?>
<svg
   viewBox="0 0 512 512"
   version="1.1"
   id="svg134"
   sodipodi:docname="studio_new.svg"
   width="512"
   height="512"
   inkscape:version="1.2.2 (b0a84865, 2022-12-01)"
   xmlns:inkscape="http://www.inkscape.org/namespaces/inkscape"
   xmlns:sodipodi="http://sodipodi.sourceforge.net/DTD/sodipodi-0.dtd"
   xmlns="http://www.w3.org/2000/svg"
   xmlns:svg="http://www.w3.org/2000/svg">
  <defs
     id="defs138" />
  <sodipodi:namedview
     id="namedview136"
     pagecolor="#ffffff"
     bordercolor="#000000"
     borderopacity="0.25"
     inkscape:showpageshadow="2"
     inkscape:pageopacity="0.0"
     inkscape:pagecheckerboard="0"
     inkscape:deskcolor="#d1d1d1"
     showgrid="false"
     inkscape:zoom="0.5"
     inkscape:cx="-420"
     inkscape:cy="220"
     inkscape:window-width="1309"
     inkscape:window-height="437"
     inkscape:window-x="491"
     inkscape:window-y="567"
     inkscape:window-maximized="0"
     inkscape:current-layer="svg134" />
  <rect
     style="fill:#2d2a46;fill-opacity:1;stroke:#656184;stroke-width:15;stroke-dasharray:none;stroke-opacity:1;stop-color:#000000"
     id="rect463"
     width="400"
     height="400"
     x="56"
     y="8"
     rx="100"
     ry="100"
     inkscape:label="rect463" />
  <!--!Font Awesome Free 6.5.2 by @fontawesome - https://fontawesome.com License - https://fontawesome.com/license/free Copyright 2024 Fonticons, Inc.-->
  <path
     d="m 271.84,120.88 c 0,-8.7615 -7.0785,-15.84 -15.84,-15.84 -8.7615,0 -15.84,7.0785 -15.84,15.84 v 71.28 h -71.28 c -8.7615,0 -15.84,7.0785 -15.84,15.84 0,8.7615 7.0785,15.84 15.84,15.84 h 71.28 v 71.28 c 0,8.7615 7.0785,15.84 15.84,15.84 8.7615,0 15.84,-7.0785 15.84,-15.84 v -71.28 h 71.28 c 8.7615,0 15.84,-7.0785 15.84,-15.84 0,-8.7615 -7.0785,-15.84 -15.84,-15.84 h -71.28 z"
     id="path132"
     style="fill:#f9f9f9;stroke-width:0.495" />
</svg>
