<?xml version="1.0" encoding="UTF-8" standalone="no"?>
<svg
   viewBox="0 0 512 512"
   version="1.1"
   id="svg1355"
   sodipodi:docname="studio_stop.svg"
   width="512"
   height="512"
   inkscape:version="1.2.2 (b0a84865, 2022-12-01)"
   xmlns:inkscape="http://www.inkscape.org/namespaces/inkscape"
   xmlns:sodipodi="http://sodipodi.sourceforge.net/DTD/sodipodi-0.dtd"
   xmlns="http://www.w3.org/2000/svg"
   xmlns:svg="http://www.w3.org/2000/svg">
  <defs
     id="defs1359" />
  <sodipodi:namedview
     id="namedview1357"
     pagecolor="#ffffff"
     bordercolor="#000000"
     borderopacity="0.25"
     inkscape:showpageshadow="2"
     inkscape:pageopacity="0.0"
     inkscape:pagecheckerboard="0"
     inkscape:deskcolor="#d1d1d1"
     showgrid="false"
     inkscape:zoom="0.4609375"
     inkscape:cx="-869.9661"
     inkscape:cy="256"
     inkscape:window-width="1735"
     inkscape:window-height="743"
     inkscape:window-x="0"
     inkscape:window-y="597"
     inkscape:window-maximized="0"
     inkscape:current-layer="svg1355" />
  <rect
     style="fill:#2d2a46;fill-opacity:1;stroke:#656184;stroke-width:15;stroke-dasharray:none;stroke-opacity:1;stop-color:#000000"
     id="rect463"
     width="400"
     height="400"
     x="56"
     y="10.535582"
     rx="100"
     ry="100"
     inkscape:label="rect463" />
  <!--!Font Awesome Free 6.5.2 by @fontawesome - https://fontawesome.com License - https://fontawesome.com/license/free Copyright 2024 Fonticons, Inc.-->
  <path
     d="m 318.073,105.89258 c 2.9205,-6.7815 0.7425,-14.7015 -5.247,-19.0575 -5.9895,-4.355998 -14.157,-3.959998 -19.7505,0.891 l -126.72,110.88 c -4.95,4.356 -6.732,11.3355 -4.4055,17.4735 2.3265,6.138 8.2665,10.296 14.85,10.296 h 55.1925 l -38.0655,88.803 c -2.9205,6.7815 -0.7425,14.7015 5.247,19.0575 5.9895,4.356 14.157,3.96 19.7505,-0.891 l 126.72,-110.88 c 4.95,-4.356 6.732,-11.3355 4.4055,-17.4735 -2.3265,-6.138 -8.217,-10.2465 -14.85,-10.2465 h -55.1925 z"
     id="path1353"
     style="fill:#f9f9f9;stroke-width:0.495" />
</svg>
