<?xml version="1.0" encoding="UTF-8" standalone="no"?>
<svg
   viewBox="0 0 512 512"
   version="1.1"
   id="svg134"
   sodipodi:docname="studio_back.svg"
   inkscape:version="1.2.2 (b0a84865, 2022-12-01)"
   xmlns:inkscape="http://www.inkscape.org/namespaces/inkscape"
   xmlns:sodipodi="http://sodipodi.sourceforge.net/DTD/sodipodi-0.dtd"
   xmlns="http://www.w3.org/2000/svg"
   xmlns:svg="http://www.w3.org/2000/svg">
  <defs
     id="defs138" />
  <sodipodi:namedview
     id="namedview136"
     pagecolor="#ffffff"
     bordercolor="#000000"
     borderopacity="0.25"
     inkscape:showpageshadow="2"
     inkscape:pageopacity="0.0"
     inkscape:pagecheckerboard="0"
     inkscape:deskcolor="#d1d1d1"
     showgrid="false"
     inkscape:zoom="0.65186406"
     inkscape:cx="-191.75777"
     inkscape:cy="81.305295"
     inkscape:window-width="1309"
     inkscape:window-height="437"
     inkscape:window-x="491"
     inkscape:window-y="708"
     inkscape:window-maximized="0"
     inkscape:current-layer="svg134" />
  <!--!Font Awesome Free 6.5.2 by @fontawesome - https://fontawesome.com License - https://fontawesome.com/license/free Copyright 2024 Fonticons, Inc.-->
  <rect
     style="fill:#2d2a46;fill-opacity:1;stroke:#656184;stroke-width:15;stroke-dasharray:none;stroke-opacity:1;stop-color:#000000"
     id="rect463"
     width="400"
     height="400"
     x="55.999996"
     y="9.5809317"
     rx="100"
     ry="100"
     inkscape:label="rect463" />
  <path
     d="m 157.24132,193.74425 h -4.20751 c -6.5835,0 -11.88,-5.2965 -11.88,-11.88 v -63.36 c 0,-4.8015 2.871,-9.1575 7.326,-10.989 4.455,-1.8315 9.55351,-0.8415 12.96901,2.574 l 20.59199,20.592 c 43.362,-42.817496 113.2065,-42.668996 156.321,0.495 43.3125,43.3125 43.3125,113.5035 0,156.816 -43.3125,43.3125 -113.5035,43.3125 -156.816,0 -6.1875,-6.1875 -6.1875,-16.236 0,-22.4235 6.1875,-6.1875 16.236,-6.1875 22.4235,0 30.9375,30.9375 81.081,30.9375 112.0185,0 30.9375,-30.9375 30.9375,-81.081 0,-112.0185 -30.789,-30.789 -80.5365,-30.9375 -111.5235,-0.495 l 20.3445,20.394 c 3.4155,3.4155 4.4055,8.514 2.574,12.969 -1.8315,4.455 -6.1875,7.326 -10.989,7.326 z"
     id="path132"
     style="fill:#f1be05;stroke-width:0.495" />
</svg>
