<?xml version="1.0" encoding="UTF-8" standalone="no"?>
<svg
   viewBox="0 0 512 512"
   version="1.1"
   id="svg570"
   sodipodi:docname="studio_fail.svg"
   width="512"
   height="512"
   inkscape:version="1.2.2 (b0a84865, 2022-12-01)"
   xmlns:inkscape="http://www.inkscape.org/namespaces/inkscape"
   xmlns:sodipodi="http://sodipodi.sourceforge.net/DTD/sodipodi-0.dtd"
   xmlns="http://www.w3.org/2000/svg"
   xmlns:svg="http://www.w3.org/2000/svg">
  <defs
     id="defs574" />
  <sodipodi:namedview
     id="namedview572"
     pagecolor="#ffffff"
     bordercolor="#000000"
     borderopacity="0.25"
     inkscape:showpageshadow="2"
     inkscape:pageopacity="0.0"
     inkscape:pagecheckerboard="0"
     inkscape:deskcolor="#d1d1d1"
     showgrid="false"
     inkscape:zoom="0.4609375"
     inkscape:cx="-108.47458"
     inkscape:cy="258.16949"
     inkscape:window-width="1309"
     inkscape:window-height="437"
     inkscape:window-x="0"
     inkscape:window-y="567"
     inkscape:window-maximized="0"
     inkscape:current-layer="svg570" />
  <rect
     style="fill:#2d2a46;fill-opacity:1;stroke:#656184;stroke-width:15;stroke-dasharray:none;stroke-opacity:1;stop-color:#000000"
     id="rect463"
     width="399.89999"
     height="400"
     x="56"
     y="10.44068"
     rx="100"
     ry="100"
     inkscape:label="rect463" />
  <!--!Font Awesome Free 6.5.2 by @fontawesome - https://fontawesome.com License - https://fontawesome.com/license/free Copyright 2024 Fonticons, Inc.-->
  <path
     d="m 330.547,158.26768 c 6.1875,-6.1875 6.1875,-16.236 0,-22.4235 -6.1875,-6.1875 -16.236,-6.1875 -22.4235,0 L 256,188.01718 203.827,135.89368 c -6.1875,-6.1875 -16.236,-6.1875 -22.4235,0 -6.1875,6.1875 -6.1875,16.236 0,22.4235 l 52.173,52.1235 -52.1235,52.173 c -6.1875,6.1875 -6.1875,16.236 0,22.4235 6.1875,6.1875 16.236,6.1875 22.4235,0 l 52.1235,-52.173 52.173,52.1235 c 6.1875,6.1875 16.236,6.1875 22.4235,0 6.1875,-6.1875 6.1875,-16.236 0,-22.4235 l -52.173,-52.1235 z"
     id="path568"
     style="fill:#ff8080;stroke-width:0.495" />
</svg>
