<?xml version="1.0" encoding="UTF-8" standalone="no"?>
<svg
   viewBox="0 0 512 512"
   version="1.1"
   id="svg1049"
   sodipodi:docname="studio_projects.svg"
   inkscape:version="1.2.2 (b0a84865, 2022-12-01)"
   width="512"
   height="512"
   xmlns:inkscape="http://www.inkscape.org/namespaces/inkscape"
   xmlns:sodipodi="http://sodipodi.sourceforge.net/DTD/sodipodi-0.dtd"
   xmlns="http://www.w3.org/2000/svg"
   xmlns:svg="http://www.w3.org/2000/svg">
  <defs
     id="defs1053" />
  <sodipodi:namedview
     id="namedview1051"
     pagecolor="#ffffff"
     bordercolor="#000000"
     borderopacity="0.25"
     inkscape:showpageshadow="2"
     inkscape:pageopacity="0.0"
     inkscape:pagecheckerboard="0"
     inkscape:deskcolor="#d1d1d1"
     showgrid="false"
     inkscape:zoom="0.4609375"
     inkscape:cx="80.271186"
     inkscape:cy="256"
     inkscape:window-width="1309"
     inkscape:window-height="411"
     inkscape:window-x="2385"
     inkscape:window-y="621"
     inkscape:window-maximized="0"
     inkscape:current-layer="svg1049" />
  <!--!Font Awesome Free 6.5.2 by @fontawesome - https://fontawesome.com License - https://fontawesome.com/license/free Copyright 2024 Fonticons, Inc.-->
  <path
     d="m 106.53903,319.85 -66.524995,114 V 224 c 0,-26.475 21.525003,-48 47.999993,-48 h 88.125002 c 12.75,0 24.975,5.025 33.975,14.025 l 19.875,19.875 c 9,9 21.225,14.025 33.975,14.025 h 88.05 c 26.475,0 48,21.525 48,48 v 24 h -252 c -17.1,0 -32.85,9.075 -41.475,23.85 z m 20.7,12.075 c 4.35,-7.425 12.225,-11.925 20.775,-11.925 h 300 c 8.625,0 16.5,4.575 20.775,12.075 4.275,7.5 4.275,16.65 -0.075,24.075 l -84,144 c -4.275,7.35 -12.15,11.85 -20.7,11.85 H 64.014038 c -8.625003,0 -16.500003,-4.575 -20.775003,-12.075 -4.275,-7.5 -4.275,-16.65 0.075,-24.075 l 83.999995,-144 z"
     id="path1047"
     style="fill:#f9f9f9;stroke-width:0.75" />
</svg>
