<?xml version="1.0" encoding="UTF-8" standalone="no"?>
<svg
   viewBox="0 0 512 512"
   version="1.1"
   id="svg888"
   sodipodi:docname="studio_dbs.svg"
   width="512"
   height="512"
   inkscape:version="1.2.2 (b0a84865, 2022-12-01)"
   xmlns:inkscape="http://www.inkscape.org/namespaces/inkscape"
   xmlns:sodipodi="http://sodipodi.sourceforge.net/DTD/sodipodi-0.dtd"
   xmlns="http://www.w3.org/2000/svg"
   xmlns:svg="http://www.w3.org/2000/svg">
  <defs
     id="defs892" />
  <sodipodi:namedview
     id="namedview890"
     pagecolor="#ffffff"
     bordercolor="#000000"
     borderopacity="0.25"
     inkscape:showpageshadow="2"
     inkscape:pageopacity="0.0"
     inkscape:pagecheckerboard="0"
     inkscape:deskcolor="#d1d1d1"
     showgrid="false"
     inkscape:zoom="0.4609375"
     inkscape:cx="-229.9661"
     inkscape:cy="368.81356"
     inkscape:window-width="1309"
     inkscape:window-height="411"
     inkscape:window-x="2236"
     inkscape:window-y="571"
     inkscape:window-maximized="0"
     inkscape:current-layer="svg888" />
  <!--!Font Awesome Free 6.5.2 by @fontawesome - https://fontawesome.com License - https://fontawesome.com/license/free Copyright 2024 Fonticons, Inc.-->
  <path
     d="m 424,94.711864 v 35.999996 c 0,33.15 -75.225,60 -168,60 -92.775,0 -168,-26.85 -168,-60 V 94.711864 c 0,-33.15 75.225,-60 168,-60 92.775,0 168,26.85 168,60 z M 382.9,195.73686 c 15.6,-5.55 29.925,-12.675 41.1,-21.45 v 76.425 c 0,33.15 -75.225,60 -168,60 -92.775,0 -168,-26.85 -168,-60 v -76.425 c 11.175,8.85 25.5,15.9 41.1,21.45 33.675,12 78.525,18.975 126.9,18.975 48.375,0 93.225,-6.975 126.9,-18.975 z m -294.900001,98.55 c 11.175,8.85 25.500001,15.9 41.100001,21.45 33.675,12 78.525,18.975 126.9,18.975 48.375,0 93.225,-6.975 126.9,-18.975 15.6,-5.55 29.925,-12.675 41.1,-21.45 v 64.425 c 0,33.15 -75.225,60 -168,60 -92.775,0 -168,-26.85 -168,-60 z"
     id="path886"
     style="fill:#f9f9f9;stroke-width:0.75" />
</svg>
