<?xml version="1.0" encoding="UTF-8" standalone="no"?>
<svg
   viewBox="0 0 512 512"
   version="1.1"
   id="svg134"
   sodipodi:docname="studio_back.svg"
   inkscape:version="1.2.2 (b0a84865, 2022-12-01)"
   xmlns:inkscape="http://www.inkscape.org/namespaces/inkscape"
   xmlns:sodipodi="http://sodipodi.sourceforge.net/DTD/sodipodi-0.dtd"
   xmlns="http://www.w3.org/2000/svg"
   xmlns:svg="http://www.w3.org/2000/svg">
  <defs
     id="defs138" />
  <sodipodi:namedview
     id="namedview136"
     pagecolor="#ffffff"
     bordercolor="#000000"
     borderopacity="0.25"
     inkscape:showpageshadow="2"
     inkscape:pageopacity="0.0"
     inkscape:pagecheckerboard="0"
     inkscape:deskcolor="#d1d1d1"
     showgrid="false"
     inkscape:zoom="0.65186406"
     inkscape:cx="283.8015"
     inkscape:cy="133.46341"
     inkscape:window-width="1309"
     inkscape:window-height="411"
     inkscape:window-x="2328"
     inkscape:window-y="792"
     inkscape:window-maximized="0"
     inkscape:current-layer="svg134" />
  <!--!Font Awesome Free 6.5.2 by @fontawesome - https://fontawesome.com License - https://fontawesome.com/license/free Copyright 2024 Fonticons, Inc.-->
  <path
     d="m 106.36563,189.58596 h -6.375002 c -9.975,0 -18,-8.025 -18,-18 V 75.585965 c 0,-7.275 4.35,-13.875 11.1,-16.65 6.75,-2.775 14.475002,-1.275 19.650002,3.9 l 31.19999,31.2 c 65.7,-64.875 171.525,-64.65 236.85,0.75 65.625,65.624995 65.625,171.974995 0,237.599995 -65.625,65.625 -171.975,65.625 -237.6,0 -9.375,-9.375 -9.375,-24.6 0,-33.975 9.375,-9.375 24.6,-9.375 33.975,0 46.875,46.875 122.85,46.875 169.725,0 46.875,-46.875 46.875,-122.85 0,-169.725 -46.65,-46.649995 -122.025,-46.874995 -168.975,-0.75 l 30.825,30.9 c 5.175,5.175 6.675,12.9 3.9,19.65 -2.775,6.75 -9.375,11.1 -16.65,11.1 z"
     id="path132"
     style="fill:#f1be05;stroke-width:0.75" />
</svg>
