<?xml version="1.0" encoding="UTF-8" standalone="no"?>
<svg
   viewBox="0 0 512 512"
   version="1.1"
   id="svg570"
   sodipodi:docname="studio_fail.svg"
   width="512"
   height="512"
   inkscape:version="1.2.2 (b0a84865, 2022-12-01)"
   xmlns:inkscape="http://www.inkscape.org/namespaces/inkscape"
   xmlns:sodipodi="http://sodipodi.sourceforge.net/DTD/sodipodi-0.dtd"
   xmlns="http://www.w3.org/2000/svg"
   xmlns:svg="http://www.w3.org/2000/svg">
  <defs
     id="defs574" />
  <sodipodi:namedview
     id="namedview572"
     pagecolor="#ffffff"
     bordercolor="#000000"
     borderopacity="0.25"
     inkscape:showpageshadow="2"
     inkscape:pageopacity="0.0"
     inkscape:pagecheckerboard="0"
     inkscape:deskcolor="#d1d1d1"
     showgrid="false"
     inkscape:zoom="0.4609375"
     inkscape:cx="-17.355932"
     inkscape:cy="256"
     inkscape:window-width="1309"
     inkscape:window-height="411"
     inkscape:window-x="2499"
     inkscape:window-y="679"
     inkscape:window-maximized="0"
     inkscape:current-layer="svg570" />
  <!--!Font Awesome Free 6.5.2 by @fontawesome - https://fontawesome.com License - https://fontawesome.com/license/free Copyright 2024 Fonticons, Inc.-->
  <path
     d="m 368.95,312.89375 c 9.375,-9.375 9.375,-24.6 0,-33.975 -9.375,-9.375 -24.6,-9.375 -33.975,0 l -78.975,79.05 -79.05,-78.975 c -9.375,-9.375 -24.6,-9.375 -33.975,0 -9.375,9.375 -9.375,24.6 0,33.975 l 79.05,78.975 -78.975,79.05 c -9.375,9.375 -9.375,24.6 0,33.975 9.375,9.375 24.6,9.375 33.975,0 l 78.975,-79.05 79.05,78.975 c 9.375,9.375 24.6,9.375 33.975,0 9.375,-9.375 9.375,-24.6 0,-33.975 l -79.05,-78.975 z"
     id="path568"
     style="fill:#ff8080;stroke-width:0.75" />
</svg>
