<?xml version="1.0" encoding="UTF-8"?>
<svg width="125px" height="38px" viewBox="0 0 125 38" version="1.1" xmlns="http://www.w3.org/2000/svg" xmlns:xlink="http://www.w3.org/1999/xlink">
    <title>Vaticle</title>
    <g id="Home" stroke="none" stroke-width="1" fill="none" fill-rule="evenodd">
        <g id="Home-Desktop" transform="translate(-50.000000, -20.000000)">
            <g id="Group" transform="translate(50.000000, 20.000000)">
                <g id="vaticle" transform="translate(42.975332, 11.303264)" fill="#FFFFFF" fill-rule="nonzero">
                    <path d="M80.457999,18.0461413 L81.2540505,15.3836897 L74.4152042,15.3836897 C73.6147286,15.3836897 73.2144907,14.9834519 73.2144907,14.1829762 L73.2144907,12.3297011 L81.7760998,12.3297011 L81.7760998,8.46653602 C81.7760998,5.71707618 80.4100707,4.34234626 77.6780126,4.34234626 L74.2846919,4.34234626 C71.535232,4.34234626 70.1605021,5.71707618 70.1605021,8.46653602 L70.1605021,13.9219516 C70.1605021,16.6714114 71.535232,18.0461413 74.2846919,18.0461413 L80.457999,18.0461413 Z M78.7221112,9.95437663 L73.2144907,9.95437663 L73.2144907,8.20551135 C73.2144907,7.4050357 73.6147286,7.00479788 74.4152042,7.00479788 L77.5213978,7.00479788 C78.3218734,7.00479788 78.7221112,7.4050357 78.7221112,8.20551135 L78.7221112,9.95437663 Z" id="e"></path>
                    <polygon id="V" points="10.6715886 18.0151435 16.1977655 0.0044414513 12.8119908 0.0044414513 8.34846902 15.1177697 7.85252215 15.1177697 3.38900033 0.0044414513 4.09876645e-15 0.0044414513 5.50330014 18.0151435"></polygon>
                    <path d="M27.8971159,18.0380896 L27.8971159,8.4584843 C27.8971159,5.70902447 26.5310868,4.33429455 23.7990287,4.33429455 L18.8940001,4.33429455 L18.1086909,6.99674616 L23.6424139,6.99674616 C24.4428895,6.99674616 24.8431273,7.39698399 24.8431273,8.19745963 L24.8431273,9.89411998 L20.8233474,9.89411998 C18.0738876,9.89411998 16.6991577,11.2514482 16.6991577,13.9661048 C16.6991577,16.6807613 18.0738876,18.0380896 20.8233474,18.0380896 L27.8971159,18.0380896 Z M24.8431273,15.375638 L20.9538598,15.375638 C20.1533841,15.375638 19.7531463,14.9754002 19.7531463,14.1749245 L19.7531463,13.4440555 C19.7531463,12.6609815 20.1533841,12.2694445 20.9538598,12.2694445 L24.8431273,12.2694445 L24.8431273,15.375638 Z" id="a"></path>
                    <path d="M38.6653653,18.0498467 L39.4956407,15.387395 L35.762988,15.387395 C34.9625123,15.387395 34.5622745,14.9871572 34.5622745,14.1866816 L34.5622745,7.0085032 L39.2346161,7.0085032 L39.2346161,4.34605159 L34.5622745,4.34605159 L34.5622745,0.0391445703 L31.5082859,0.0391445703 L31.5082859,13.9256569 C31.5082859,16.6751167 32.8830158,18.0498467 35.6324756,18.0498467 L38.6653653,18.0498467 Z" id="t"></path>
                    <path d="M66.6364142,18.0107021 L67.4666897,15.3482505 L66.9067124,15.3482505 C66.1062368,15.3482505 65.705999,14.9480127 65.705999,14.147537 L65.705999,6.96935863 L65.705999,4.30690702 L65.705999,1.02469161e-15 L62.6520103,1.02469161e-15 L62.6520103,13.8865123 C62.6520103,16.6359722 64.0267403,18.0107021 66.7762001,18.0107021 L66.6364142,18.0107021 Z" id="l"></path>
                    <path d="M45.6306127,3.14723867 L45.6306127,0.0410451175 L42.4200093,0.0410451175 L42.4200093,3.14723867 L45.6306127,3.14723867 Z M45.5536372,18.0576832 L45.5536372,4.32968388 L42.4996486,4.32968388 L42.4996486,18.0576832 L45.5536372,18.0576832 Z" id="i"></path>
                    <path d="M58.8395777,18.0600973 L59.6615985,15.3955443 L53.4704312,15.3955443 C52.6693238,15.3955443 52.2687701,14.9949906 52.2687701,14.1938832 L52.2687701,8.21170049 C52.2687701,7.41059305 52.6693238,7.01003933 53.4704312,7.01003933 L59.6615985,7.01003933 L58.8645391,4.34548634 L53.3398159,4.34548634 C50.588186,4.34548634 49.2123711,5.72130128 49.2123711,8.47293117 L49.2123711,13.9326525 C49.2123711,16.6842824 50.588186,18.0600973 53.3398159,18.0600973 L58.8395777,18.0600973 Z" id="c"></path>
                </g>
                <g id="bot" transform="translate(0.005229, 0.000000)" fill="#02DAC9">
                    <path d="M17.154708,3.72103602 C26.6175046,3.72103602 34.2886169,11.3921483 34.2886169,20.854945 C34.2886169,30.3177416 26.6175046,37.9888539 17.154708,37.9888539 C7.69191136,37.9888539 0.020799022,30.3177416 0.020799022,20.854945 C0.020799022,11.3921483 7.69191136,3.72103602 17.154708,3.72103602 Z M23.8369,12.5505346 L10.234064,12.5506449 C5.62600021,12.5743342 1.90963039,16.329112 1.93331972,20.9371758 C1.95717213,25.5769628 5.7233368,29.326635 10.3631838,29.3301246 L10.3631838,29.3301246 L23.8369024,29.340258 L23.8369024,29.340258 C28.4778249,29.3402603 32.2349197,25.5831656 32.2349197,20.9485543 C32.2349197,16.3104561 28.4749982,12.5505346 23.8369,12.5505346 L23.8369,12.5505346 Z" id="Combined-Shape"></path>
                    <ellipse id="Oval" cx="11.8326355" cy="20.9978509" rx="3.69743773" ry="3.57378629"></ellipse>
                    <ellipse id="Oval-Copy" cx="23.0790086" cy="20.9978509" rx="3.69743773" ry="3.57378629"></ellipse>
                    <path d="M3.96572095,0.0274794101 C5.78548953,0.0274794101 7.26070344,1.50269332 7.26070344,3.3224619 C7.26070344,4.67043863 6.45125823,5.82935929 5.29191531,6.33967637 L5.29103425,13.796468 L2.65504826,13.796468 L2.65453756,6.34623911 C1.48717669,5.83934648 0.670738461,4.67624887 0.670738461,3.3224619 C0.670738461,1.50269332 2.14595237,0.0274794101 3.96572095,0.0274794101 Z" id="Combined-Shape-Copy-14"></path>
                </g>
            </g>
        </g>
    </g>
</svg>